<svg xmlns="http://www.w3.org/2000/svg" width="90" height="90" viewBox="0 0 90 90" fill="none"><path d="M67.4841 17.4219V12.9432" stroke="white" stroke-width="4" stroke-linecap="round" stroke-linejoin="round"></path><path d="M56.2908 59.9554L63.1569 73.6842C64.3317 76.0751 67.2222 77.0604 69.6131 75.8856C70.5708 75.4136 71.346 74.6419 71.8145 73.6842L80.858 55.5973C83.714 49.8853 83.714 43.1604 80.858 37.4484L71.8007 19.365C70.6191 16.9775 67.7252 16.0026 65.3377 17.1842C64.3903 17.6528 63.6255 18.4176 63.1569 19.365L55.9601 33.7553" stroke="white" stroke-width="2" stroke-linecap="round" stroke-linejoin="round"></path><path d="M67.5908 17.4219L62.6023 34.675C60.4456 42.4265 60.4456 50.619 62.6023 58.3706L67.5908 75.6272L72.5828 58.3637C74.7394 50.6121 74.7394 42.4197 72.5828 34.6681L67.5908 17.4219V17.4219Z" stroke="white" stroke-width="2" stroke-linecap="round" stroke-linejoin="round"></path><path d="M44.4328 17.4219V12.9432" stroke="white" stroke-width="4" stroke-linecap="round" stroke-linejoin="round"></path><path d="M32.9744 59.4249L40.1058 73.6843C41.2805 76.0752 44.171 77.0605 46.5619 75.8857C47.5197 75.4137 48.2948 74.642 48.7633 73.6843L57.8068 55.5974C60.6628 49.8854 60.6628 43.1605 57.8068 37.4485L48.7633 19.3651C47.5886 16.9742 44.6981 15.9889 42.3072 17.1636C41.3495 17.6356 40.5743 18.4073 40.1058 19.3651L32.9778 33.621" stroke="white" stroke-width="2" stroke-linecap="round" stroke-linejoin="round"></path><path d="M36.3229 41.2139C36.4504 40.9004 36.5917 40.5938 36.7432 40.2872L44.4396 24.8944L52.1326 40.2872" stroke="white" stroke-width="2" stroke-linecap="round" stroke-linejoin="round"></path><path d="M52.1292 40.2872C54.0826 44.2147 54.0826 48.8346 52.1292 52.762L44.4362 68.1514L36.7398 52.762C36.664 52.6104 36.5917 52.4588 36.5228 52.3038" stroke="white" stroke-width="2" stroke-linecap="round" stroke-linejoin="round"></path><path d="M44.4328 25.1355V66.6733" stroke="white" stroke-width="2" stroke-linecap="round" stroke-linejoin="round"></path><path d="M53.311 46.5228H37.0569" stroke="white" stroke-width="2" stroke-linecap="round" stroke-linejoin="round"></path><path d="M37.0569 39.8083L51.6297 39.7679" stroke="white" stroke-width="2" stroke-linecap="round" stroke-linejoin="round"></path><path d="M40.4123 33.0938H48.6117" stroke="white" stroke-width="2" stroke-linecap="round" stroke-linejoin="round"></path><path d="M51.9674 53.241H37.0569" stroke="white" stroke-width="2" stroke-linecap="round" stroke-linejoin="round"></path><path d="M48.436 59.9554H40.4123" stroke="white" stroke-width="2" stroke-linecap="round" stroke-linejoin="round"></path><path d="M21.5125 17.4219V12.9432" stroke="white" stroke-width="4" stroke-linecap="round" stroke-linejoin="round"></path><path d="M17.1854 19.3651L8.142 37.4485C5.286 43.1605 5.286 49.8854 8.142 55.5974L17.1854 73.6843C18.3602 76.0752 21.2507 77.0605 23.6416 75.8857C24.5993 75.4137 25.3745 74.642 25.843 73.6843L34.8865 55.5974C37.7425 49.8854 37.7425 43.1605 34.8865 37.4485L25.843 19.3651C24.6682 16.9742 21.7778 15.9889 19.3869 17.1636C18.4291 17.6356 17.654 18.4073 17.1854 19.3651V19.3651Z" stroke="white" stroke-width="2" stroke-linecap="round" stroke-linejoin="round"></path><path d="M21.6226 17.4219L16.6306 34.675C14.474 42.4265 14.474 50.619 16.6306 58.3706L21.6226 75.6272L26.6111 58.3637C28.7678 50.6121 28.7678 42.4197 26.6111 34.6681L21.6226 17.4219V17.4219Z" stroke="white" stroke-width="2" stroke-linecap="round" stroke-linejoin="round"></path></svg>