<svg xmlns="http://www.w3.org/2000/svg" width="62" height="90" viewBox="0 0 62 90" fill="none"><path d="M16.1832 85.7625C14.0114 85.7625 12.1296 84.0283 12.1296 81.4506V81.419C12.1296 79.0205 13.8164 77.1071 16.0514 77.1071C18.2864 77.1071 19.8467 79.0205 19.8467 81.3873C19.8309 81.5929 19.6675 81.7511 19.4619 81.7616H12.973C13.1206 83.8174 14.5965 85.0193 16.2148 85.0193C17.2269 85.0298 18.1968 84.6186 18.8926 83.8859C18.9559 83.8121 19.0508 83.77 19.1509 83.77C19.3618 83.77 19.5357 83.9334 19.541 84.1442C19.541 84.2496 19.4883 84.3498 19.4092 84.4183C18.5764 85.3144 17.4009 85.8047 16.1832 85.7625ZM18.9928 81.0184C18.8768 79.3474 17.9385 77.8081 16.0251 77.8081C14.3857 77.8081 13.1206 79.1839 12.973 81.0184H18.9928Z" fill="black"></path><path d="M28.286 85.2299C28.3124 85.4513 28.1543 85.6463 27.9329 85.6727C27.7115 85.699 27.5164 85.5409 27.4901 85.3195C27.4901 85.2879 27.4901 85.2563 27.4901 85.2299V84.028C26.9102 85.1297 25.7506 85.8045 24.5065 85.7623C22.398 85.7623 21.1962 84.339 21.1962 82.357V77.6129C21.1803 77.402 21.3385 77.2228 21.5493 77.207C21.5599 77.207 21.5757 77.207 21.5862 77.207C21.8024 77.2017 21.9869 77.3757 21.9921 77.5918C21.9921 77.5971 21.9921 77.6076 21.9921 77.6129V82.1884C21.9921 83.891 22.9462 85.0085 24.6278 85.0085C26.1933 85.0296 27.4795 83.7803 27.5006 82.2147C27.5006 82.162 27.5006 82.1093 27.5006 82.0566V77.6129C27.4848 77.4073 27.6377 77.2281 27.8433 77.207C27.8591 77.207 27.8749 77.207 27.8854 77.207C28.1015 77.1965 28.286 77.3704 28.2966 77.5865C28.2966 77.5971 28.2966 77.6023 28.2966 77.6129L28.286 85.2299Z" fill="black"></path><path d="M30.0836 78.0138C30.0836 77.3338 30.6318 76.7803 31.317 76.7803C31.997 76.7803 32.5505 77.3285 32.5505 78.0138V78.4091C32.9037 77.5657 33.4888 76.7855 34.2215 76.7855C34.8804 76.7855 35.4128 77.3179 35.4128 77.9769C35.4128 78.5303 35.0333 79.01 34.4956 79.1365C33.2463 79.4317 32.5505 80.3858 32.5505 82.1359V84.4395C32.5505 85.1195 31.997 85.6729 31.317 85.6729C30.637 85.6729 30.0888 85.1195 30.0836 84.4395V78.019V78.0138Z" fill="black"></path><path d="M39.9303 85.7624C37.5319 85.8731 35.5024 84.0229 35.3865 81.6245C35.3812 81.5085 35.3812 81.3873 35.3865 81.2713V81.2397C35.3865 78.7569 37.1576 76.7169 39.6826 76.7169C41.9492 76.6747 43.8258 78.4775 43.868 80.7442C43.868 80.7969 43.868 80.8496 43.868 80.9023C43.8996 81.5191 43.4252 82.0515 42.8032 82.0831C42.7768 82.0831 42.7452 82.0831 42.7188 82.0831H37.8376C37.9957 83.111 38.9077 83.849 39.9461 83.7857C40.5787 83.791 41.1954 83.5854 41.6962 83.2006C42.1284 82.879 42.7399 82.9739 43.0615 83.4062C43.1827 83.5749 43.2512 83.7752 43.2512 83.9807C43.2512 84.2601 43.1353 84.529 42.9297 84.7135C42.0863 85.4198 41.0162 85.7941 39.9145 85.7677L39.9303 85.7624ZM41.4959 80.5491C41.3483 79.4474 40.6999 78.6989 39.6615 78.6989C38.623 78.6989 37.9747 79.4316 37.7796 80.5491H41.4959Z" fill="black"></path><path d="M44.5164 81.2714V81.2397C44.4795 78.778 46.451 76.7539 48.9127 76.717C48.9654 76.717 49.0234 76.717 49.0761 76.717C50.1514 76.6642 51.211 77.0069 52.0438 77.6869C52.5077 78.0928 52.5552 78.7938 52.1493 79.2577C51.9384 79.5002 51.6327 79.6373 51.3111 79.6373C51.0528 79.6373 50.7998 79.5476 50.5995 79.3895C50.162 79.0363 49.6138 78.8466 49.055 78.8624C47.8321 78.9204 46.8833 79.9588 46.9465 81.187C46.9465 81.2028 46.9465 81.2186 46.9465 81.2292V81.2608C46.9465 82.5892 47.8057 83.6592 49.1499 83.6592C49.7456 83.6592 50.3201 83.4484 50.7735 83.0636C50.9632 82.916 51.1952 82.8369 51.4376 82.8317C52.0175 82.8475 52.4761 83.3324 52.4603 83.9123C52.455 84.1969 52.3285 84.471 52.1176 84.6661C51.2795 85.4357 50.1673 85.8363 49.0339 85.7836C46.5828 85.831 44.5586 83.8806 44.5112 81.4295C44.5112 81.382 44.5112 81.3399 44.5112 81.2924" fill="black"></path><path d="M53.3563 74.8036C53.3563 74.0867 53.9573 73.6492 54.7374 73.6492C55.5176 73.6492 56.1132 74.0867 56.1132 74.8036V74.8352C55.9867 75.5943 55.2698 76.1109 54.5107 75.9896C53.9204 75.8947 53.4565 75.4309 53.3563 74.8352V74.8036ZM53.5039 78.0138C53.4617 77.3338 53.9731 76.7487 54.6531 76.7012C55.3331 76.6538 55.9182 77.1704 55.9656 77.8504C55.9656 77.9031 55.9656 77.9558 55.9656 78.0138V84.4342C56.0078 85.1142 55.4965 85.6993 54.8165 85.7468C54.1365 85.7942 53.5514 85.2776 53.5039 84.5976C53.5039 84.5449 53.5039 84.4922 53.5039 84.4342V78.0138Z" fill="black"></path><path d="M57.0514 81.2714V81.2397C57.0145 78.778 58.986 76.7539 61.4477 76.717C61.5004 76.717 61.5584 76.717 61.6111 76.717C62.6864 76.6642 63.7459 77.0069 64.5788 77.6869C64.8266 77.8977 64.9689 78.2035 64.9689 78.5303C64.9689 79.147 64.4681 79.6425 63.8514 79.6373H63.8461C63.5878 79.6373 63.3348 79.5476 63.1345 79.3895C62.7022 79.0363 62.154 78.8518 61.5953 78.8624C60.3723 78.9204 59.4235 79.9588 59.4867 81.187C59.4867 81.2028 59.4867 81.2186 59.4867 81.2292V81.2608C59.4867 82.5892 60.346 83.6592 61.6901 83.6592C62.2858 83.6592 62.8604 83.4484 63.3137 83.0636C63.5035 82.916 63.7354 82.8369 63.9779 82.8317C64.5577 82.8475 65.0163 83.3324 65.0005 83.9123C64.9952 84.1969 64.8687 84.471 64.6579 84.6661C63.8197 85.4357 62.7128 85.8363 61.5794 85.7836C59.1283 85.831 57.1041 83.8859 57.0514 81.4348C57.0514 81.3873 57.0514 81.3399 57.0514 81.2924" fill="black"></path><path d="M43.0352 34.4358C43.0352 37.0556 40.9109 39.1799 38.291 39.1799C35.6712 39.1799 33.5469 37.0556 33.5469 34.4358C33.5469 31.8159 35.6712 29.6916 38.291 29.6916C40.8951 29.6758 43.0194 31.779 43.0352 34.3831C43.0352 34.3989 43.0352 34.42 43.0352 34.4358Z" fill="black"></path><path d="M57.1674 34.4357C57.1516 37.0397 55.0272 39.1429 52.4232 39.1271C49.8192 39.1113 47.716 36.987 47.7318 34.383C47.7476 31.8 49.8403 29.7073 52.4232 29.6915C55.0431 29.6915 57.1674 31.8159 57.1674 34.4357Z" fill="black"></path><path d="M78.3475 43.571L72.8074 36.3071C72.4489 35.7642 71.7215 35.6113 71.1786 35.9698C71.0415 36.0594 70.9308 36.1753 70.8412 36.3071L65.222 43.5868C64.6949 44.2931 64.9637 44.8677 65.8545 44.8677H68.3268C63.7091 57.2447 49.9353 63.5386 37.553 58.921C28.9397 55.7107 22.9305 47.846 22.0923 38.6898C21.9289 36.9239 20.3633 35.6271 18.6027 35.7853C16.8421 35.9434 15.5401 37.5143 15.6983 39.2749C17.2533 55.9638 32.0445 68.23 48.7334 66.675C54.6267 66.1268 60.2354 63.8654 64.8583 60.165C69.7553 56.3275 73.3292 51.0562 75.0793 45.0838L75.0266 45.3158H75.0793L77.7149 45.0838C78.6005 45.0838 78.8852 44.272 78.3475 43.5657V43.571Z" fill="black"></path><path d="M75.7013 29.6707C72.9339 15.9706 61.2738 5.84977 47.3207 5.03272C33.763 4.20513 20.4688 12.85 15.4821 24.0673H12.9203C12.0136 24.0673 11.729 24.8211 12.2825 25.5222L17.986 32.902C18.3497 33.4608 19.0982 33.6189 19.657 33.2605C19.7835 33.1761 19.8995 33.0707 19.9838 32.9442L25.6135 25.5222C26.1407 24.8159 25.8718 24.0779 24.9704 24.0779H22.7618C27.2845 16.4029 36.9099 10.8417 46.9148 11.4268C57.9107 12.0593 67.0986 20.0243 69.2862 30.8199C69.6446 32.5805 71.3472 33.7243 73.1131 33.3923C74.8368 33.1076 76.0018 31.4788 75.7171 29.7551C75.7171 29.7287 75.7066 29.6971 75.7013 29.6707Z" fill="black"></path></svg>