<svg xmlns="http://www.w3.org/2000/svg" width="90" height="90" viewBox="0 0 90 90" fill="none"><path d="M67.4839 17.4219V12.9432" stroke="black" stroke-width="4" stroke-linecap="round" stroke-linejoin="round"></path><path d="M56.2907 59.9554L63.1568 73.6841C64.3316 76.0751 67.2221 77.0604 69.613 75.8856C70.5707 75.4136 71.3459 74.6419 71.8144 73.6841L80.8578 55.5973C83.7138 49.8853 83.7138 43.1604 80.8578 37.4484L71.8006 19.365C70.6189 16.9775 67.725 16.0025 65.3376 17.1842C64.3902 17.6527 63.6253 18.4176 63.1568 19.365L55.96 33.7552" stroke="black" stroke-width="2" stroke-linecap="round" stroke-linejoin="round"></path><path d="M67.5909 17.4219L62.6023 34.6751C60.4457 42.4266 60.4457 50.6191 62.6023 58.3706L67.5909 75.6272L72.5829 58.3637C74.7395 50.6122 74.7395 42.4197 72.5829 34.6682L67.5909 17.4219V17.4219Z" stroke="black" stroke-width="2" stroke-linecap="round" stroke-linejoin="round"></path><path d="M44.4326 17.4219V12.9432" stroke="black" stroke-width="4" stroke-linecap="round" stroke-linejoin="round"></path><path d="M32.9741 59.425L40.1055 73.6843C41.2803 76.0752 44.1708 77.0605 46.5617 75.8858C47.5194 75.4138 48.2946 74.6421 48.7631 73.6843L57.8065 55.5975C60.6625 49.8854 60.6625 43.1606 57.8065 37.4486L48.7631 19.3651C47.5883 16.9742 44.6979 15.9889 42.3069 17.1637C41.3492 17.6357 40.5741 18.4074 40.1055 19.3651L32.9776 33.621" stroke="black" stroke-width="2" stroke-linecap="round" stroke-linejoin="round"></path><path d="M36.3228 41.214C36.4502 40.9005 36.5915 40.5938 36.7431 40.2872L44.4395 24.8944L52.1324 40.2872" stroke="black" stroke-width="2" stroke-linecap="round" stroke-linejoin="round"></path><path d="M52.1293 40.2872C54.0827 44.2146 54.0827 48.8345 52.1293 52.7619L44.4364 68.1513L36.74 52.7619C36.6642 52.6104 36.5919 52.4588 36.5229 52.3037" stroke="black" stroke-width="2" stroke-linecap="round" stroke-linejoin="round"></path><path d="M44.4326 25.1355V66.6733" stroke="black" stroke-width="2" stroke-linecap="round" stroke-linejoin="round"></path><path d="M53.3107 46.5228H37.0566" stroke="black" stroke-width="2" stroke-linecap="round" stroke-linejoin="round"></path><path d="M37.0566 39.8083L51.6294 39.7679" stroke="black" stroke-width="2" stroke-linecap="round" stroke-linejoin="round"></path><path d="M40.4121 33.0938H48.6115" stroke="black" stroke-width="2" stroke-linecap="round" stroke-linejoin="round"></path><path d="M51.9671 53.2409H37.0566" stroke="black" stroke-width="2" stroke-linecap="round" stroke-linejoin="round"></path><path d="M48.4358 59.9554H40.4121" stroke="black" stroke-width="2" stroke-linecap="round" stroke-linejoin="round"></path><path d="M21.5127 17.4219V12.9432" stroke="black" stroke-width="4" stroke-linecap="round" stroke-linejoin="round"></path><path d="M17.1854 19.3651L8.142 37.4486C5.286 43.1606 5.286 49.8854 8.142 55.5975L17.1854 73.6843C18.3602 76.0752 21.2507 77.0605 23.6416 75.8858C24.5993 75.4138 25.3745 74.6421 25.843 73.6843L34.8865 55.5975C37.7425 49.8854 37.7425 43.1606 34.8865 37.4486L25.843 19.3651C24.6682 16.9742 21.7778 15.9889 19.3869 17.1637C18.4291 17.6357 17.654 18.4074 17.1854 19.3651V19.3651Z" stroke="black" stroke-width="2" stroke-linecap="round" stroke-linejoin="round"></path><path d="M21.6226 17.4219L16.6307 34.6751C14.474 42.4266 14.474 50.6191 16.6307 58.3706L21.6226 75.6272L26.6112 58.3637C28.7678 50.6122 28.7678 42.4197 26.6112 34.6682L21.6226 17.4219V17.4219Z" stroke="black" stroke-width="2" stroke-linecap="round" stroke-linejoin="round"></path></svg>