<svg xmlns="http://www.w3.org/2000/svg" width="92" height="90" viewBox="0 0 92 90" fill="none"><path d="M1.12158 27.8066L45.6823 45.9112L90.2431 27.8066L45.6823 9.77759L1.12158 27.8066Z" stroke="white" stroke-width="2" stroke-linecap="round" stroke-linejoin="round"></path><path d="M17.1333 27.7652L45.7237 16.1991L74.3178 27.7652L45.7237 39.3804L17.1333 27.7652Z" stroke="white" stroke-width="2" stroke-linecap="round" stroke-linejoin="round"></path><path d="M45.6821 45.9111V79.3327" stroke="white" stroke-width="2" stroke-linecap="round" stroke-linejoin="round"></path><path d="M5.30322 58.4442V37.5558" stroke="white" stroke-width="2" stroke-linecap="round" stroke-linejoin="round"></path><path d="M49.8599 73.7611V52.8727" stroke="white" stroke-width="2" stroke-linecap="round" stroke-linejoin="round"></path><path d="M5.30322 37.6276L30.3694 47.3805" stroke="white" stroke-width="2" stroke-linecap="round" stroke-linejoin="round"></path><path d="M9.48047 47.3805L34.5466 57.1221" stroke="white" stroke-width="2" stroke-linecap="round" stroke-linejoin="round"></path><path d="M10.8745 57.1221L35.9331 66.8713" stroke="white" stroke-width="2" stroke-linecap="round" stroke-linejoin="round"></path><path d="M74.926 64.0913L49.8599 73.833" stroke="white" stroke-width="2" stroke-linecap="round" stroke-linejoin="round"></path><path d="M24.5444 30.8097L25.8212 28.0938C26.4444 26.7755 28.0158 26.2127 29.334 26.8322L29.6664 26.987C30.9847 27.6065 32.5523 27.0437 33.1718 25.7254L33.3304 25.393C33.9499 24.0747 35.5213 23.5119 36.8358 24.1314L37.1682 24.2901C38.4864 24.9058 40.054 24.3429 40.6735 23.0284L40.8321 22.6885C41.4516 21.3702 43.023 20.8074 44.3375 21.4269L44.6774 21.5855C45.9957 22.205 47.5633 21.6422 48.1828 20.3239L49.4595 17.6005" stroke="white" stroke-width="2" stroke-linecap="round" stroke-linejoin="round"></path><path d="M32.4316 33.9786L33.7121 31.2552C34.3316 29.9369 35.903 29.3741 37.2175 29.9936L37.5574 30.1522C38.8757 30.7717 40.4433 30.2089 41.0628 28.8906L41.2176 28.5506C41.8409 27.2361 43.4085 26.6733 44.723 27.289L45.0629 27.4477C46.3812 28.0671 47.9488 27.5043 48.5683 26.1861L48.7269 25.8537C49.3464 24.5392 50.914 23.9726 52.2322 24.5883L52.5646 24.7469C53.8829 25.3664 55.4505 24.8036 56.07 23.4853L57.3505 20.7694" stroke="white" stroke-width="2" stroke-linecap="round" stroke-linejoin="round"></path><path d="M40.4092 37.1593L41.6897 34.4434C42.3092 33.1251 43.8805 32.5623 45.195 33.1818L45.5274 33.3367C46.8457 33.9561 48.4133 33.3933 49.0327 32.075L49.1914 31.7426C49.8109 30.4244 51.3822 29.8615 52.6967 30.481L53.0367 30.6359C54.355 31.2554 55.9225 30.6926 56.542 29.3743L56.6969 29.0419C57.3164 27.7236 58.8877 27.1608 60.2022 27.7803L60.5422 27.9389C61.8604 28.5546 63.428 27.9918 64.0475 26.6773L65.328 23.9539" stroke="white" stroke-width="2" stroke-linecap="round" stroke-linejoin="round"></path><path d="M1.12158 27.8066V61.2281L45.6823 79.3327L90.2431 61.2281V27.8066L45.6823 9.77759L1.12158 27.8066Z" stroke="white" stroke-width="2" stroke-linecap="round" stroke-linejoin="round"></path></svg>