<svg xmlns="http://www.w3.org/2000/svg" width="92" height="90" viewBox="0 0 92 90" fill="none"><path d="M1.12152 27.8066L45.6823 45.9112L90.2431 27.8066L45.6823 9.77759L1.12152 27.8066Z" stroke="black" stroke-width="2" stroke-linecap="round" stroke-linejoin="round"></path><path d="M17.1334 27.7652L45.7238 16.1991L74.3179 27.7652L45.7238 39.3804L17.1334 27.7652Z" stroke="black" stroke-width="2" stroke-linecap="round" stroke-linejoin="round"></path><path d="M45.6823 45.9111V79.3327" stroke="black" stroke-width="2" stroke-linecap="round" stroke-linejoin="round"></path><path d="M5.30302 58.4442V37.5558" stroke="black" stroke-width="2" stroke-linecap="round" stroke-linejoin="round"></path><path d="M49.86 73.7611V52.8727" stroke="black" stroke-width="2" stroke-linecap="round" stroke-linejoin="round"></path><path d="M5.30302 37.6276L30.3692 47.3805" stroke="black" stroke-width="2" stroke-linecap="round" stroke-linejoin="round"></path><path d="M9.48063 47.3805L34.5468 57.1221" stroke="black" stroke-width="2" stroke-linecap="round" stroke-linejoin="round"></path><path d="M10.8745 57.1221L35.9331 66.8713" stroke="black" stroke-width="2" stroke-linecap="round" stroke-linejoin="round"></path><path d="M74.9261 64.0913L49.86 73.833" stroke="black" stroke-width="2" stroke-linecap="round" stroke-linejoin="round"></path><path d="M24.5445 30.8097L25.8213 28.0938C26.4445 26.7755 28.0159 26.2127 29.3342 26.8322L29.6666 26.987C30.9848 27.6065 32.5524 27.0437 33.1719 25.7254L33.3305 25.393C33.95 24.0747 35.5214 23.5119 36.8359 24.1314L37.1683 24.2901C38.4865 24.9058 40.0541 24.3429 40.6736 23.0284L40.8322 22.6885C41.4517 21.3702 43.0231 20.8074 44.3376 21.4269L44.6775 21.5855C45.9958 22.205 47.5634 21.6422 48.1829 20.3239L49.4596 17.6005" stroke="black" stroke-width="2" stroke-linecap="round" stroke-linejoin="round"></path><path d="M32.4315 33.9786L33.712 31.2552C34.3315 29.9369 35.9028 29.3741 37.2173 29.9936L37.5573 30.1522C38.8756 30.7717 40.4431 30.2089 41.0626 28.8906L41.2175 28.5506C41.8407 27.2361 43.4083 26.6733 44.7228 27.289L45.0628 27.4477C46.381 28.0671 47.9486 27.5043 48.5681 26.1861L48.7267 25.8537C49.3462 24.5392 50.9138 23.9726 52.2321 24.5883L52.5645 24.7469C53.8828 25.3664 55.4503 24.8036 56.0698 23.4853L57.3503 20.7694" stroke="black" stroke-width="2" stroke-linecap="round" stroke-linejoin="round"></path><path d="M40.4092 37.1593L41.6897 34.4434C42.3092 33.1251 43.8805 32.5623 45.195 33.1818L45.5274 33.3367C46.8457 33.9561 48.4133 33.3933 49.0327 32.075L49.1914 31.7426C49.8109 30.4244 51.3822 29.8615 52.6967 30.481L53.0367 30.6359C54.355 31.2554 55.9225 30.6926 56.542 29.3743L56.6969 29.0419C57.3164 27.7236 58.8877 27.1608 60.2022 27.7803L60.5422 27.9389C61.8604 28.5546 63.428 27.9918 64.0475 26.6773L65.328 23.9539" stroke="black" stroke-width="2" stroke-linecap="round" stroke-linejoin="round"></path><path d="M1.12152 27.8066V61.2281L45.6823 79.3327L90.2431 61.2281V27.8066L45.6823 9.77759L1.12152 27.8066Z" stroke="black" stroke-width="2" stroke-linecap="round" stroke-linejoin="round"></path></svg>