<svg xmlns="http://www.w3.org/2000/svg" width="90" height="90" viewBox="0 0 90 90" fill="none"><path d="M16.183 85.7625C14.0112 85.7625 12.1294 84.0282 12.1294 81.4506V81.4189C12.1294 79.0205 13.8162 77.107 16.0512 77.107C18.2863 77.107 19.8466 79.0205 19.8466 81.3873C19.8307 81.5929 19.6673 81.751 19.4618 81.7616H12.9728C13.1204 83.8174 14.5964 85.0192 16.2146 85.0192C17.2267 85.0298 18.1966 84.6186 18.8925 83.8859C18.9557 83.8121 19.0506 83.7699 19.1507 83.7699C19.3616 83.7699 19.5356 83.9333 19.5408 84.1442C19.5408 84.2496 19.4881 84.3498 19.409 84.4183C18.5762 85.3144 17.4007 85.8046 16.183 85.7625ZM18.9926 81.0183C18.8766 79.3473 17.9384 77.8081 16.0249 77.8081C14.3855 77.8081 13.1204 79.1839 12.9728 81.0183H18.9926Z" fill="black"></path><path d="M28.2863 85.23C28.3126 85.4514 28.1545 85.6464 27.9331 85.6727C27.7117 85.6991 27.5167 85.541 27.4903 85.3196C27.4903 85.2879 27.4903 85.2563 27.4903 85.23V84.0281C26.9105 85.1298 25.7508 85.8045 24.5068 85.7624C22.3983 85.7624 21.1964 84.3391 21.1964 82.3571V77.6129C21.1806 77.4021 21.3387 77.2229 21.5496 77.2071C21.5601 77.2071 21.5759 77.2071 21.5865 77.2071C21.8026 77.2018 21.9871 77.3757 21.9924 77.5919C21.9924 77.5971 21.9924 77.6077 21.9924 77.6129V82.1884C21.9924 83.891 22.9465 85.0086 24.628 85.0086C26.1936 85.0297 27.4798 83.7804 27.5009 82.2148C27.5009 82.1621 27.5009 82.1094 27.5009 82.0566V77.6129C27.485 77.4074 27.6379 77.2281 27.8435 77.2071C27.8593 77.2071 27.8751 77.2071 27.8857 77.2071C28.1018 77.1965 28.2863 77.3705 28.2968 77.5866C28.2968 77.5971 28.2968 77.6024 28.2968 77.6129L28.2863 85.23Z" fill="black"></path><path d="M30.0835 78.0137C30.0835 77.3337 30.6317 76.7802 31.317 76.7802C31.997 76.7802 32.5505 77.3284 32.5505 78.0137V78.409C32.9036 77.5656 33.4887 76.7855 34.2215 76.7855C34.8804 76.7855 35.4128 77.3179 35.4128 77.9768C35.4128 78.5303 35.0332 79.01 34.4956 79.1365C33.2463 79.4317 32.5505 80.3858 32.5505 82.1358V84.4394C32.5505 85.1194 31.997 85.6729 31.317 85.6729C30.637 85.6729 30.0888 85.1194 30.0835 84.4394V78.019V78.0137Z" fill="black"></path><path d="M39.9301 85.7625C37.5317 85.8732 35.5022 84.023 35.3863 81.6245C35.381 81.5086 35.381 81.3873 35.3863 81.2714V81.2397C35.3863 78.757 37.1574 76.717 39.6824 76.717C41.949 76.6748 43.8256 78.4776 43.8678 80.7442C43.8678 80.7969 43.8678 80.8497 43.8678 80.9024C43.8994 81.5191 43.425 82.0515 42.803 82.0831C42.7766 82.0831 42.745 82.0831 42.7186 82.0831H37.8374C37.9956 83.111 38.9075 83.849 39.9459 83.7858C40.5785 83.791 41.1952 83.5855 41.696 83.2007C42.1283 82.8791 42.7397 82.974 43.0613 83.4062C43.1825 83.5749 43.251 83.7752 43.251 83.9808C43.251 84.2602 43.1351 84.529 42.9295 84.7135C42.0861 85.4199 41.016 85.7941 39.9143 85.7678L39.9301 85.7625ZM41.4957 80.5492C41.3481 79.4475 40.6997 78.699 39.6613 78.699C38.6228 78.699 37.9745 79.4317 37.7794 80.5492H41.4957Z" fill="black"></path><path d="M44.5165 81.2713V81.2397C44.4796 78.778 46.4511 76.7538 48.9128 76.7169C48.9655 76.7169 49.0235 76.7169 49.0762 76.7169C50.1515 76.6642 51.211 77.0068 52.0439 77.6868C52.5078 78.0927 52.5552 78.7938 52.1493 79.2577C51.9385 79.5002 51.6327 79.6372 51.3112 79.6372C51.0529 79.6372 50.7999 79.5476 50.5996 79.3895C50.1621 79.0363 49.6138 78.8465 49.0551 78.8623C47.8321 78.9203 46.8833 79.9588 46.9466 81.187C46.9466 81.2028 46.9466 81.2186 46.9466 81.2291V81.2608C46.9466 82.5891 47.8058 83.6592 49.15 83.6592C49.7456 83.6592 50.3202 83.4484 50.7735 83.0636C50.9633 82.916 51.1952 82.8369 51.4377 82.8316C52.0175 82.8474 52.4761 83.3324 52.4603 83.9122C52.4551 84.1969 52.3285 84.471 52.1177 84.666C51.2796 85.4356 50.1673 85.8363 49.034 85.7835C46.5828 85.831 44.5587 83.8806 44.5112 81.4295C44.5112 81.382 44.5112 81.3399 44.5112 81.2924" fill="black"></path><path d="M53.3564 74.8036C53.3564 74.0867 53.9574 73.6492 54.7375 73.6492C55.5177 73.6492 56.1133 74.0867 56.1133 74.8036V74.8352C55.9868 75.5943 55.2699 76.1109 54.5109 75.9897C53.9205 75.8948 53.4566 75.4309 53.3564 74.8352V74.8036ZM53.504 78.0138C53.4619 77.3338 53.9732 76.7487 54.6532 76.7013C55.3332 76.6538 55.9183 77.1704 55.9657 77.8504C55.9657 77.9031 55.9657 77.9558 55.9657 78.0138V84.4343C56.0079 85.1142 55.4966 85.6994 54.8166 85.7468C54.1366 85.7942 53.5515 85.2777 53.504 84.5977C53.504 84.5449 53.504 84.4922 53.504 84.4343V78.0138Z" fill="black"></path><path d="M57.0513 81.2713V81.2397C57.0144 78.778 58.9859 76.7538 61.4475 76.7169C61.5003 76.7169 61.5582 76.7169 61.611 76.7169C62.6863 76.6642 63.7458 77.0068 64.5787 77.6868C64.8264 77.8977 64.9688 78.2034 64.9688 78.5303C64.9688 79.147 64.468 79.6425 63.8513 79.6372H63.846C63.5877 79.6372 63.3347 79.5476 63.1344 79.3895C62.7021 79.0363 62.1539 78.8518 61.5951 78.8623C60.3722 78.9203 59.4234 79.9588 59.4866 81.187C59.4866 81.2028 59.4866 81.2186 59.4866 81.2291V81.2608C59.4866 82.5891 60.3458 83.6592 61.69 83.6592C62.2857 83.6592 62.8602 83.4484 63.3136 83.0636C63.5033 82.916 63.7353 82.8369 63.9778 82.8316C64.5576 82.8474 65.0162 83.3324 65.0004 83.9122C64.9951 84.1969 64.8686 84.471 64.6578 84.666C63.8196 85.4356 62.7127 85.8363 61.5793 85.7835C59.1282 85.831 57.104 83.8859 57.0513 81.4347C57.0513 81.3873 57.0513 81.3399 57.0513 81.2924" fill="black"></path><path d="M66.0391 74.8669C66.0391 74.1869 66.5925 73.6334 67.2725 73.6334C67.9525 73.6334 68.5008 74.1869 68.506 74.8669V84.4343C68.506 85.1143 67.9525 85.6678 67.2725 85.6678C66.5925 85.6678 66.0443 85.1143 66.0391 84.4343V74.8669Z" fill="black"></path><path d="M69.5918 81.2711V81.2395C69.7078 78.6408 71.9059 76.6271 74.4994 76.7431C76.9242 76.8485 78.8693 78.7831 78.9958 81.2079V81.2395C78.8798 83.8383 76.6817 85.8519 74.0882 85.7359C71.6634 85.6305 69.7183 83.6959 69.5918 81.2711ZM76.5657 81.2711V81.2395C76.6131 79.9639 75.6221 78.8938 74.3465 78.8411C74.3254 78.8411 74.2991 78.8411 74.278 78.8411C73.0498 78.82 72.0377 79.8005 72.0166 81.0287C72.0166 81.0867 72.0166 81.1499 72.0166 81.2079V81.2395C71.9691 82.5152 72.9601 83.5852 74.2358 83.638C74.2569 83.638 74.2832 83.638 74.3043 83.638C75.5325 83.659 76.5446 82.6786 76.5657 81.4504C76.5657 81.3924 76.5657 81.3291 76.5657 81.2711Z" fill="black"></path><path d="M43.0352 34.4358C43.0352 37.0556 40.9109 39.1799 38.291 39.1799C35.6712 39.1799 33.5469 37.0556 33.5469 34.4358C33.5469 31.8159 35.6712 29.6916 38.291 29.6916C40.8951 29.6758 43.0194 31.779 43.0352 34.3831C43.0352 34.3989 43.0352 34.42 43.0352 34.4358Z" fill="black"></path><path d="M57.1676 34.4357C57.1518 37.0397 55.0275 39.1429 52.4235 39.1271C49.8195 39.1113 47.7162 36.987 47.732 34.383C47.7478 31.8 49.8405 29.7073 52.4235 29.6915C55.0433 29.6915 57.1676 31.8159 57.1676 34.4357Z" fill="black"></path><path d="M78.3473 43.571L72.8072 36.3071C72.4487 35.7642 71.7213 35.6113 71.1784 35.9698C71.0413 36.0594 70.9306 36.1753 70.841 36.3071L65.2218 43.5868C64.6947 44.2931 64.9635 44.8677 65.8544 44.8677H68.3266C63.709 57.2447 49.9351 63.5386 37.5528 58.921C28.9395 55.7107 22.9303 47.846 22.0921 38.6898C21.9287 36.9239 20.3632 35.6271 18.6025 35.7853C16.8419 35.9434 15.5399 37.5143 15.6981 39.2749C17.2531 55.9638 32.0443 68.23 48.7332 66.675C54.6265 66.1268 60.2352 63.8654 64.8581 60.165C69.7551 56.3275 73.3291 51.0562 75.0791 45.0838L75.0264 45.3158H75.0791L77.7148 45.0838C78.6003 45.0838 78.885 44.272 78.3473 43.5657V43.571Z" fill="black"></path><path d="M75.7013 29.6707C72.9339 15.9706 61.2738 5.84977 47.3207 5.03272C33.763 4.20513 20.4688 12.85 15.4821 24.0673H12.9203C12.0136 24.0673 11.729 24.8211 12.2825 25.5222L17.986 32.902C18.3497 33.4608 19.0982 33.6189 19.657 33.2605C19.7835 33.1761 19.8995 33.0707 19.9838 32.9442L25.6135 25.5222C26.1407 24.8159 25.8718 24.0779 24.9704 24.0779H22.7618C27.2845 16.4029 36.9099 10.8417 46.9148 11.4268C57.9107 12.0593 67.0986 20.0243 69.2862 30.8199C69.6446 32.5805 71.3472 33.7243 73.1131 33.3923C74.8368 33.1076 76.0018 31.4788 75.7171 29.7551C75.7171 29.7287 75.7066 29.6971 75.7013 29.6707Z" fill="black"></path></svg>