<svg xmlns="http://www.w3.org/2000/svg" width="90" height="90" viewBox="0 0 90 90" fill="none"><path d="M44.4979 67.8904C61.3414 67.8904 74.9958 57.6991 74.9958 45.1274C74.9958 32.5558 61.3414 22.3645 44.4979 22.3645C27.6544 22.3645 14 32.5558 14 45.1274C14 57.6991 27.6544 67.8904 44.4979 67.8904Z" stroke="white" stroke-width="2" stroke-linecap="round" stroke-linejoin="round"></path><path d="M44.4978 67.8904C49.7624 67.8904 54.0302 57.6991 54.0302 45.1274C54.0302 32.5558 49.7624 22.3645 44.4978 22.3645C39.2331 22.3645 34.9653 32.5558 34.9653 45.1274C34.9653 57.6991 39.2331 67.8904 44.4978 67.8904Z" stroke="white" stroke-width="2" stroke-linecap="round" stroke-linejoin="round"></path><path d="M44.4982 67.8904C55.0251 67.8904 63.5588 57.6991 63.5588 45.1274C63.5588 32.5558 55.0251 22.3645 44.4982 22.3645C33.9713 22.3645 25.4375 32.5558 25.4375 45.1274C25.4375 57.6991 33.9713 67.8904 44.4982 67.8904Z" stroke="white" stroke-width="2" stroke-linecap="round" stroke-linejoin="round"></path><path d="M14 45.1273H74.9958" stroke="white" stroke-width="2" stroke-linecap="round" stroke-linejoin="round"></path><path d="M44.498 22.3645V67.8945" stroke="white" stroke-width="2" stroke-linecap="round" stroke-linejoin="round"></path><path d="M38.5108 80.4242C24.9715 80.4242 14 72.2367 14 62.1328" stroke="white" stroke-width="2" stroke-linecap="round" stroke-linejoin="round"></path><path d="M33.9121 75.8523L38.5105 80.4283L33.9121 85.0001" stroke="white" stroke-width="2" stroke-linecap="round" stroke-linejoin="round"></path><path d="M50.4893 9.57593C64.0243 9.57593 75 17.7634 75 27.8673" stroke="white" stroke-width="2" stroke-linecap="round" stroke-linejoin="round"></path><path d="M55.0835 14.1478L50.4893 9.57597L55.0835 5" stroke="white" stroke-width="2" stroke-linecap="round" stroke-linejoin="round"></path></svg>