<svg xmlns="http://www.w3.org/2000/svg" viewBox="0 0 90 90" width="90" height="90"><title>icon-selo-eureciclo-svg</title><style>		.s0 { fill: #ffffff } 	</style><path id="Layer" fill-rule="evenodd" class="s0" d="m16.2 85.8c-2.2 0-4.1-1.8-4.1-4.3v-0.1c0-2.4 1.7-4.3 4-4.3 2.2 0 3.7 1.9 3.7 4.3 0 0.2-0.1 0.4-0.3 0.4h-6.5c0.1 2 1.6 3.2 3.2 3.2 1 0 2-0.4 2.7-1.1q0.1-0.1 0.3-0.1c0.2 0 0.3 0.1 0.3 0.3q0 0.2-0.1 0.3c-0.8 0.9-2 1.4-3.2 1.4zm2.8-4.8c-0.1-1.7-1.1-3.2-3-3.2-1.6 0-2.9 1.4-3 3.2z"></path><path id="Layer" class="s0" d="m28.3 85.2c0 0.3-0.1 0.4-0.4 0.5-0.2 0-0.4-0.2-0.4-0.4q0 0 0-0.1v-1.2c-0.6 1.1-1.7 1.8-3 1.8-2.1 0-3.3-1.5-3.3-3.4v-4.8c0-0.2 0.1-0.4 0.3-0.4q0.1 0 0.1 0c0.2 0 0.4 0.2 0.4 0.4q0 0 0 0v4.6c0 1.7 0.9 2.8 2.6 2.8 1.6 0 2.9-1.2 2.9-2.8q0-0.1 0-0.1v-4.5c0-0.2 0.1-0.4 0.3-0.4q0.1 0 0.1 0c0.2 0 0.4 0.2 0.4 0.4q0 0 0 0z"></path><path id="Layer" class="s0" d="m30.1 78c0-0.7 0.5-1.2 1.2-1.2 0.7 0 1.3 0.5 1.3 1.2v0.4c0.3-0.8 0.9-1.6 1.6-1.6 0.7 0 1.2 0.5 1.2 1.2 0 0.5-0.4 1-0.9 1.1-1.3 0.3-1.9 1.3-1.9 3v2.3c0 0.7-0.6 1.3-1.3 1.3-0.7 0-1.2-0.6-1.2-1.3v-6.4z"></path><path id="Layer" fill-rule="evenodd" class="s0" d="m39.9 85.8c-2.4 0.1-4.4-1.8-4.5-4.2q0-0.2 0-0.3v-0.1c0-2.4 1.8-4.5 4.3-4.5 2.2 0 4.1 1.8 4.2 4q0 0.1 0 0.2c0 0.6-0.5 1.2-1.1 1.2q0 0-0.1 0h-4.9c0.2 1 1.1 1.7 2.1 1.7 0.7 0 1.3-0.2 1.8-0.6 0.4-0.3 1-0.2 1.4 0.2q0.1 0.3 0.2 0.6c0 0.3-0.2 0.5-0.4 0.7-0.8 0.7-1.9 1.1-3 1.1zm1.6-5.2c-0.2-1.1-0.8-1.9-1.9-1.9-1 0-1.6 0.7-1.8 1.9z"></path><path id="Layer" class="s0" d="m44.5 81.3v-0.1c0-2.4 2-4.4 4.4-4.5q0.1 0 0.2 0c1.1 0 2.1 0.3 2.9 1 0.5 0.4 0.6 1.1 0.1 1.6-0.2 0.2-0.5 0.3-0.8 0.3q-0.4 0-0.7-0.2c-0.4-0.4-1-0.6-1.5-0.5-1.3 0-2.2 1.1-2.2 2.3q0 0 0 0v0.1c0 1.3 0.9 2.4 2.2 2.4 0.6 0 1.2-0.3 1.7-0.6q0.3-0.3 0.6-0.3c0.6 0 1.1 0.5 1.1 1.1 0 0.3-0.2 0.6-0.4 0.8-0.8 0.7-1.9 1.1-3.1 1.1-2.4 0-4.4-1.9-4.5-4.4q0 0 0-0.1"></path><path id="Layer" class="s0" d="m53.4 74.8c0-0.7 0.6-1.2 1.3-1.2 0.8 0 1.4 0.5 1.4 1.2-0.1 0.8-0.8 1.3-1.6 1.2-0.6-0.1-1-0.6-1.1-1.2zm0.1 3.2c0-0.6 0.5-1.2 1.2-1.3 0.6 0 1.2 0.5 1.3 1.2q0 0.1 0 0.1v6.5c0 0.6-0.5 1.2-1.2 1.3-0.7 0-1.2-0.5-1.3-1.2q0 0 0-0.1z"></path><path id="Layer" class="s0" d="m57.1 81.3v-0.1c-0.1-2.4 1.9-4.4 4.3-4.5q0.1 0 0.2 0c1.1 0 2.1 0.3 3 1 0.2 0.2 0.4 0.5 0.4 0.8 0 0.6-0.5 1.1-1.1 1.1h-0.1q-0.4 0-0.7-0.2c-0.4-0.4-0.9-0.5-1.5-0.5-1.2 0-2.2 1.1-2.1 2.3q0 0 0 0v0.1c0 1.3 0.8 2.4 2.2 2.4 0.6 0 1.2-0.3 1.6-0.6q0.3-0.3 0.7-0.3c0.6 0 1 0.5 1 1.1 0 0.3-0.1 0.6-0.3 0.8-0.9 0.7-2 1.1-3.1 1.1-2.5 0-4.5-1.9-4.5-4.4q0 0 0-0.1"></path><path id="Layer" class="s0" d="m66 74.9c0-0.7 0.6-1.3 1.3-1.3 0.7 0 1.2 0.6 1.2 1.3v9.5c0 0.7-0.5 1.3-1.2 1.3-0.7 0-1.3-0.6-1.3-1.3z"></path><path id="Layer" fill-rule="evenodd" class="s0" d="m69.6 81.3v-0.1c0.1-2.6 2.3-4.6 4.9-4.5 2.4 0.1 4.4 2.1 4.5 4.5-0.1 2.6-2.3 4.7-4.9 4.5-2.4-0.1-4.4-2-4.5-4.4zm7 0v-0.1c0-1.2-1-2.3-2.3-2.4q0 0 0 0c-1.3 0-2.3 1-2.3 2.2q0 0.1 0 0.2c0 1.3 1 2.4 2.2 2.4q0.1 0 0.1 0c1.2 0.1 2.2-0.9 2.3-2.1q0-0.1 0-0.2z"></path><path id="Layer" class="s0" d="m43 34.4c0 2.7-2.1 4.8-4.7 4.8-2.6 0-4.8-2.1-4.8-4.8 0-2.6 2.2-4.7 4.8-4.7 2.6 0 4.7 2.1 4.7 4.7q0 0 0 0z"></path><path id="Layer" class="s0" d="m57.2 34.4c0 2.6-2.2 4.7-4.8 4.7-2.6 0-4.7-2.1-4.7-4.7 0-2.6 2.1-4.7 4.7-4.7 2.6 0 4.8 2.1 4.8 4.7z"></path><path id="Layer" class="s0" d="m78.3 43.6c0.6 0.7 0.3 1.5-0.6 1.5l-2.6 0.2h-0.1l0.1-0.2c-1.8 6-5.3 11.2-10.2 15.1-4.7 3.7-10.3 5.9-16.2 6.5-16.7 1.5-31.4-10.7-33-27.4-0.2-1.8 1.1-3.4 2.9-3.5 1.8-0.2 3.3 1.1 3.5 2.9 0.8 9.1 6.8 17 15.5 20.2 12.3 4.6 26.1-1.7 30.7-14h-2.4c-0.9 0-1.2-0.6-0.7-1.3l5.6-7.3q0.2-0.2 0.4-0.3c0.5-0.4 1.2-0.2 1.6 0.3l5.5 7.3z"></path><path id="Layer" class="s0" d="m75.7 29.8c0.3 1.7-0.9 3.3-2.6 3.6-1.8 0.3-3.5-0.8-3.8-2.6-2.2-10.8-11.4-18.7-22.4-19.4-10-0.6-19.6 5-24.1 12.7h2.2c0.9 0 1.1 0.7 0.6 1.4l-5.6 7.4q-0.1 0.2-0.3 0.4c-0.6 0.3-1.4 0.2-1.7-0.4l-5.7-7.4c-0.6-0.7-0.3-1.4 0.6-1.4h2.6c5-11.3 18.3-19.9 31.8-19.1 14 0.8 25.6 11 28.4 24.7q0 0 0 0.1z"></path></svg>