<svg xmlns="http://www.w3.org/2000/svg" id="Layer_1" data-name="Layer 1" viewBox="0 0 95.5 48.12"><defs><style>.cls-1{fill:#1d1d1b;}</style></defs><path class="cls-1" d="M.92,162.87a3.55,3.55,0,0,1,.16-1.05,2.57,2.57,0,0,1,.44-.82A2.9,2.9,0,0,1,3.82,160a3.83,3.83,0,0,1,1.9.5v1.05a3.25,3.25,0,0,0-1.84-.6,2,2,0,0,0-1.35.49,2.18,2.18,0,0,0,0,3,2,2,0,0,0,1.35.5,3.4,3.4,0,0,0,1.84-.6v1.05a3.71,3.71,0,0,1-1.9.49,2.92,2.92,0,0,1-1.66-.47,2.57,2.57,0,0,1-1.08-1.4A3.5,3.5,0,0,1,.92,162.87Z" transform="translate(0 -117.67)"></path><path class="cls-1" d="M7.08,165.67v-5.6h1v2.31H10.7v-2.31h1v5.6h-1v-2.38H8.05v2.38Z" transform="translate(0 -117.67)"></path><path class="cls-1" d="M13,162.87a3.49,3.49,0,0,1,.16-1,2.57,2.57,0,0,1,.44-.82,3,3,0,0,1,4.59,0,3.18,3.18,0,0,1,0,3.72,2.76,2.76,0,0,1-.64.59,3.13,3.13,0,0,1-3.3,0,2.65,2.65,0,0,1-1.09-1.41A3.49,3.49,0,0,1,13,162.87Zm1.59,1.47a1.92,1.92,0,0,0,2.61,0,2,2,0,0,0,.56-1.47,2,2,0,0,0-.56-1.46,1.92,1.92,0,0,0-2.61,0,2,2,0,0,0-.56,1.46A2,2,0,0,0,14.62,164.34Z" transform="translate(0 -117.67)"></path><path class="cls-1" d="M19.86,162.87a3.55,3.55,0,0,1,.16-1.05,2.77,2.77,0,0,1,.43-.82A2.94,2.94,0,0,1,22.76,160a3.76,3.76,0,0,1,1.89.5v1.05a3.22,3.22,0,0,0-1.84-.6,2,2,0,0,0-1.34.49,2.18,2.18,0,0,0,0,3,2,2,0,0,0,1.34.5,3.35,3.35,0,0,0,1.84-.6v1.05a3.65,3.65,0,0,1-1.89.49,2.92,2.92,0,0,1-1.66-.47,2.57,2.57,0,0,1-1.08-1.4A3.5,3.5,0,0,1,19.86,162.87Z" transform="translate(0 -117.67)"></path><path class="cls-1" d="M25.7,162.87a3.19,3.19,0,0,1,.16-1,2.39,2.39,0,0,1,.44-.82A2.89,2.89,0,0,1,28.59,160a3,3,0,0,1,2.3,4.78,2.62,2.62,0,0,1-.65.59,3,3,0,0,1-1.65.47,3,3,0,0,1-1.65-.47,2.63,2.63,0,0,1-1.08-1.41A3.19,3.19,0,0,1,25.7,162.87Zm1.59,1.47a1.91,1.91,0,0,0,2.6,0,2,2,0,0,0,.57-1.47,2,2,0,0,0-.57-1.46,1.91,1.91,0,0,0-2.6,0,2,2,0,0,0-.56,1.46A2,2,0,0,0,27.29,164.34Z" transform="translate(0 -117.67)"></path><path class="cls-1" d="M32.85,165.67v-5.6h1v4.66h2.63v.94Z" transform="translate(0 -117.67)"></path><path class="cls-1" d="M37.27,165.67l2.21-5.6h1.11l2.21,5.6h-1l-.5-1.29H38.79l-.49,1.29Zm1.86-2.17h1.79L40,161.18Z" transform="translate(0 -117.67)"></path><path class="cls-1" d="M42.84,161v-.9h4.62v.9H45.64v4.7h-1V161Z" transform="translate(0 -117.67)"></path><path class="cls-1" d="M48.78,165.67v-5.6h3.57V161H49.73v1.48h2.38v.88H49.73v1.48h2.62v.88Z" transform="translate(0 -117.67)"></path><path class="cls-1" d="M56.07,162.87a3.25,3.25,0,0,1,.16-1.05,2.56,2.56,0,0,1,.43-.82A2.92,2.92,0,0,1,59,160a3.8,3.8,0,0,1,1.9.5v1.05a3.25,3.25,0,0,0-1.84-.6,2,2,0,0,0-1.35.49,2.21,2.21,0,0,0,0,3,2,2,0,0,0,1.35.5,3.37,3.37,0,0,0,1.84-.6v1.05a3.71,3.71,0,0,1-1.9.49,2.94,2.94,0,0,1-1.66-.47,2.56,2.56,0,0,1-1.07-1.4A3.21,3.21,0,0,1,56.07,162.87Z" transform="translate(0 -117.67)"></path><path class="cls-1" d="M61.9,162.87a3.49,3.49,0,0,1,.16-1,2.79,2.79,0,0,1,.44-.82,3,3,0,0,1,4.59,0,3.18,3.18,0,0,1,0,3.72,2.57,2.57,0,0,1-.64.59,3.13,3.13,0,0,1-3.3,0,2.7,2.7,0,0,1-1.09-1.41A3.49,3.49,0,0,1,61.9,162.87Zm1.59,1.47a1.92,1.92,0,0,0,2.61,0,2,2,0,0,0,.56-1.47,2,2,0,0,0-.56-1.46,1.92,1.92,0,0,0-2.61,0,2,2,0,0,0-.56,1.46A2,2,0,0,0,63.49,164.34Z" transform="translate(0 -117.67)"></path><path class="cls-1" d="M69.05,165.67v-5.6h1L72,163.2l2-3.13h1v5.6H74v-4l-2,3.16H72l-2-3.16v4Z" transform="translate(0 -117.67)"></path><path class="cls-1" d="M78.67,165.67l2.21-5.6H82l2.21,5.6h-1l-.51-1.29H80.19l-.48,1.29Zm1.86-2.17h1.79l-.9-2.32Z" transform="translate(0 -117.67)"></path><path class="cls-1" d="M84.78,165.67l1.88-2.85-1.79-2.75H86l1.25,2,1.25-2h1.15l-1.78,2.75,1.84,2.85H88.6l-1.32-2.1-1.35,2.1Z" transform="translate(0 -117.67)"></path><path class="cls-1" d="M90.92,165.67v-5.6h3.57V161H91.87v1.48h2.37v.88H91.87v1.48h2.62v.88Zm1.46-6.19.61-1.21h1.07l-1,1.21Z" transform="translate(0 -117.67)"></path><path class="cls-1" d="M92,150.16H3.46A3.46,3.46,0,0,1,0,146.7V121.13a3.46,3.46,0,0,1,3.46-3.46H92a3.46,3.46,0,0,1,3.46,3.46V146.7A3.46,3.46,0,0,1,92,150.16ZM3.46,118.92a2.21,2.21,0,0,0-2.21,2.21V146.7a2.21,2.21,0,0,0,2.21,2.21H92a2.21,2.21,0,0,0,2.21-2.21V121.13A2.21,2.21,0,0,0,92,118.92Z" transform="translate(0 -117.67)"></path><line class="cls-1" x1="63.02" y1="0.63" x2="63.02" y2="31.78"></line><rect class="cls-1" x="62.4" y="0.63" width="1.25" height="31.15"></rect><path class="cls-1" d="M79,142.44l-.32-.26c-.29-.24-6.9-5.82-6.9-11.58h1c0,4.61,4.9,9.34,6.22,10.53,1.31-1.19,6.21-5.92,6.21-10.53h1c0,5.76-6.61,11.34-6.89,11.58Z" transform="translate(0 -117.67)"></path><path class="cls-1" d="M79,135.58c-4,0-7.22-2.23-7.22-5s3.24-5,7.22-5,7.21,2.23,7.21,5S82.92,135.58,79,135.58Zm0-9c-3.43,0-6.22,1.78-6.22,4s2.79,4,6.22,4,6.21-1.79,6.21-4S82.37,126.63,79,126.63Z" transform="translate(0 -117.67)"></path><rect class="cls-1" x="78.45" y="17.41" width="1" height="6.71"></rect><rect class="cls-1" x="76.74" y="134.08" width="1" height="8.09" transform="translate(-51.05 -72.21) rotate(-24.95)"></rect><rect class="cls-1" x="76.61" y="137.62" width="8.09" height="1" transform="translate(-78.61 35.28) rotate(-65.04)"></rect><polygon class="cls-1" points="78.85 14.43 77.88 15.67 77.94 14.1 76.4 14.43 77.46 13.26 76.07 12.53 77.63 12.31 77.03 10.85 78.36 11.69 78.85 10.19 79.33 11.69 80.66 10.85 80.07 12.31 81.63 12.53 80.24 13.26 81.29 14.43 79.75 14.1 79.81 15.67 78.85 14.43"></polygon><path class="cls-1" d="M22,141.69l-3.18-5.25L17.14,138v3.68H15.07V127.56h2.07v8.08l4.27-4.23h2.64l-3.83,3.65,4,6.63Z" transform="translate(0 -117.67)"></path><path class="cls-1" d="M35.12,135.47v6.22H33.19v-1.63h-.1a3.29,3.29,0,0,1-3.22,1.84c-1.76,0-3.37-.84-3.37-2.78,0-2.12,1.84-3,4-3.56l2.51-.59v-.1a1.93,1.93,0,0,0-2.2-2.1,2.32,2.32,0,0,0-2.49,2.29l-1.86-.34c.29-2.24,2-3.52,4.39-3.52,2.16,0,3.5.84,4,2.33A5.14,5.14,0,0,1,35.12,135.47Zm-1.95.9-2.26.63c-1.61.36-2.34.92-2.34,1.93s.61,1.36,1.67,1.36C31.94,140.29,33.09,138.8,33.17,136.37Z" transform="translate(0 -117.67)"></path><path class="cls-1" d="M48.56,137H40.27a3.19,3.19,0,0,0,3.26,3.29,3,3,0,0,0,2.83-1.78l1.9.29a4.75,4.75,0,0,1-4.7,3.14,5,5,0,0,1-5.34-5.36,5.08,5.08,0,0,1,5.23-5.34,4.91,4.91,0,0,1,5.13,5.28Zm-8.21-1.55h6.14a2.9,2.9,0,0,0-3-2.59A3,3,0,0,0,40.35,135.41Z" transform="translate(0 -117.67)"></path><path class="cls-1" d="M45.55,123.86v.07a2.15,2.15,0,0,1-4.3,0v-.07H39.62v.07a3.78,3.78,0,0,0,7.56,0v-.07Z" transform="translate(0 -117.67)"></path></svg>