<svg xmlns="http://www.w3.org/2000/svg" width="177" height="90" viewBox="0 0 177 90" fill="none"><g id="logo kae negativo"><path id="Vector" d="M1.70577 84.3795C1.70647 83.7148 1.80648 83.0541 2.00244 82.4194C2.17959 81.8634 2.45607 81.3446 2.81827 80.8886C3.34503 80.2759 4.00168 79.7901 4.73978 79.467C5.47787 79.1439 6.2786 78.9918 7.08289 79.0218C8.31784 79.0192 9.5321 79.3409 10.6058 79.9552V81.9153C9.60797 81.2018 8.41796 80.8111 7.19414 80.7952C6.27605 80.7776 5.38411 81.1036 4.691 81.71C3.97893 82.466 3.58201 83.4683 3.58201 84.5102C3.58201 85.5521 3.97893 86.5543 4.691 87.3104C5.38138 87.9235 6.27361 88.2562 7.19414 88.2438C8.41513 88.211 9.60039 87.8219 10.6058 87.1237V89.0838C9.53433 89.7015 8.31746 90.0175 7.08289 89.9986C5.99255 90.0249 4.91974 89.7191 4.00495 89.1212C3.05143 88.5159 2.3419 87.5898 2.00244 86.5076C1.78756 85.8196 1.68731 85.1005 1.70577 84.3795V84.3795Z" fill="white"></path><path id="Vector_2" d="M13.1276 89.6064V79.1523H14.9818V83.4646H19.8398V79.1523H21.6939V89.6064H19.8398V85.1634H14.9262V89.6064H13.1276Z" fill="white"></path><path id="Vector_3" d="M24.1043 84.3789C24.1125 83.7455 24.2125 83.1166 24.401 82.5121C24.5782 81.9561 24.8546 81.4374 25.2168 80.9814C25.739 80.3569 26.3904 79.855 27.1254 79.5106C27.8605 79.1662 28.6614 78.9878 29.4722 78.9878C30.2829 78.9878 31.0839 79.1662 31.8189 79.5106C32.554 79.855 33.2054 80.3569 33.7275 80.9814C34.4516 81.9924 34.8413 83.2072 34.8413 84.4536C34.8413 85.7001 34.4516 86.9149 33.7275 87.9259C33.3923 88.3539 32.9918 88.7256 32.5408 89.0273C31.6222 89.6011 30.5625 89.9051 29.4814 89.9051C28.4003 89.9051 27.3407 89.6011 26.4221 89.0273C25.4667 88.4111 24.7526 87.4811 24.401 86.3951C24.1977 85.7429 24.0975 85.0625 24.1043 84.3789V84.3789ZM27.0525 87.1231C27.7107 87.7372 28.5749 88.0783 29.4722 88.0783C30.3695 88.0783 31.2337 87.7372 31.8919 87.1231C32.2402 86.7601 32.5118 86.3298 32.6903 85.8581C32.8687 85.3865 32.9504 84.8833 32.9302 84.3789C32.9478 83.8777 32.865 83.3781 32.6866 82.9098C32.5082 82.4415 32.2379 82.0142 31.8919 81.6534C31.2337 81.0394 30.3695 80.6982 29.4722 80.6982C28.5749 80.6982 27.7107 81.0394 27.0525 81.6534C26.7064 82.0142 26.4362 82.4415 26.2578 82.9098C26.0794 83.3781 25.9965 83.8777 26.0141 84.3789C26.0013 84.8872 26.0917 85.3928 26.2798 85.8647C26.4679 86.3366 26.7498 86.7648 27.1081 87.1231H27.0525Z" fill="white"></path><path id="Vector_4" d="M36.824 84.3794C36.8247 83.7147 36.9247 83.054 37.1207 82.4193C37.2992 81.8676 37.5688 81.3501 37.918 80.8885C38.4501 80.2775 39.1104 79.7931 39.8511 79.4703C40.5918 79.1474 41.3944 78.9942 42.2011 79.0217C43.4306 79.0163 44.6396 79.3383 45.7055 79.9551V81.9152C44.7093 81.1985 43.5182 80.8074 42.2938 80.7951C41.3821 80.7821 40.4976 81.1078 39.8092 81.7099C39.0972 82.4659 38.7002 83.4682 38.7002 84.5101C38.7002 85.552 39.0972 86.5542 39.8092 87.3103C40.4948 87.9191 41.3797 88.2515 42.2938 88.2437C43.5157 88.2164 44.7025 87.8268 45.7055 87.1236V89.0837C44.6416 89.7034 43.4301 90.0196 42.2011 89.9985C41.1108 90.0248 40.038 89.719 39.1232 89.1211C38.1697 88.5158 37.4601 87.5898 37.1207 86.5075C36.9058 85.8195 36.8055 85.1004 36.824 84.3794Z" fill="white"></path><path id="Vector_5" d="M47.6525 84.3794C47.652 83.7452 47.7522 83.115 47.9492 82.5126C48.1189 81.9535 48.3961 81.4334 48.765 80.9818C49.2799 80.3536 49.9294 79.8509 50.6647 79.5114C51.4001 79.172 52.2023 79.0045 53.0111 79.0217C54.022 79.0602 55.0034 79.3755 55.8496 79.9337C56.6958 80.492 57.3748 81.272 57.8135 82.1898C58.2521 83.1077 58.4339 84.1286 58.3391 85.1427C58.2443 86.1568 57.8767 87.1256 57.2757 87.945C56.9383 88.3778 56.5309 88.7501 56.0705 89.0464C55.1572 89.6325 54.094 89.9374 53.0111 89.9238C51.9282 89.9374 50.8649 89.6325 49.9517 89.0464C49.0012 88.4293 48.2933 87.4989 47.9492 86.4142C47.7338 85.7584 47.6334 85.0699 47.6525 84.3794ZM50.6006 87.1236C51.2558 87.7364 52.1169 88.0769 53.0111 88.0769C53.9053 88.0769 54.7664 87.7364 55.4215 87.1236C55.7732 86.7622 56.0482 86.3325 56.2299 85.8608C56.4115 85.3891 56.4961 84.885 56.4784 84.3794C56.4936 83.8769 56.4078 83.3764 56.2262 82.9081C56.0446 82.4397 55.7709 82.0131 55.4215 81.6539C54.7664 81.0411 53.9053 80.7006 53.0111 80.7006C52.1169 80.7006 51.2558 81.0411 50.6006 81.6539C50.2546 82.0147 49.9843 82.442 49.8059 82.9103C49.6275 83.3785 49.5447 83.8782 49.5623 84.3794C49.5421 84.8837 49.6238 85.3869 49.8022 85.8586C49.9807 86.3303 50.2523 86.7606 50.6006 87.1236V87.1236Z" fill="white"></path><path id="Vector_6" d="M60.9097 89.6064V79.1523H62.7639V87.8516H67.6404V89.6064H60.9097Z" fill="white"></path><path id="Vector_7" d="M69.1053 89.6064L73.2031 79.1523H75.2612L79.3589 89.6064H77.5047L76.5777 87.1982H71.9237L71.0151 89.6064H69.1053ZM72.5541 85.5554H75.8731L74.1672 81.2245L72.5541 85.5554Z" fill="white"></path><path id="Vector_8" d="M79.4331 80.8886V79.2085H87.9994V80.8886H84.6248V89.6625H82.7706V80.8886H79.4331Z" fill="white"></path><path id="Vector_9" d="M90.447 89.6064V79.1523H97.0664V80.8885H92.2084V83.6513H96.6214V85.2941H92.2084V88.0569H97.0664V89.6997L90.447 89.6064Z" fill="white"></path><path id="Vector_10" d="M103.964 84.3793C103.955 83.714 104.056 83.0518 104.26 82.4192C104.432 81.8644 104.702 81.3457 105.058 80.8884C105.594 80.2678 106.263 79.7775 107.015 79.4542C107.766 79.1309 108.58 78.983 109.397 79.0216C110.632 79.0165 111.847 79.3384 112.92 79.955V81.9152C111.922 81.2017 110.732 80.811 109.508 80.7951C108.59 80.7775 107.698 81.1034 107.005 81.7098C106.305 82.4721 105.916 83.472 105.916 84.51C105.916 85.5481 106.305 86.5479 107.005 87.3102C107.695 87.9234 108.587 88.2561 109.508 88.2436C110.729 88.2141 111.916 87.8247 112.92 87.1235V89.0837C111.848 89.7014 110.631 90.0174 109.397 89.9984C108.307 90.0224 107.234 89.7168 106.319 89.121C105.371 88.5137 104.668 87.5876 104.335 86.5075C104.084 85.8266 103.958 85.1055 103.964 84.3793V84.3793Z" fill="white"></path><path id="Vector_11" d="M114.774 84.3789C114.782 83.7455 114.882 83.1166 115.07 82.5121C115.255 81.9595 115.531 81.4421 115.886 80.9814C116.408 80.3569 117.06 79.855 117.795 79.5106C118.53 79.1662 119.331 78.9878 120.142 78.9878C120.952 78.9878 121.753 79.1662 122.488 79.5106C123.223 79.855 123.875 80.3569 124.397 80.9814C125.121 81.9924 125.511 83.2072 125.511 84.4536C125.511 85.7001 125.121 86.9149 124.397 87.9259C124.066 88.3583 123.665 88.7307 123.21 89.0273C122.292 89.6011 121.232 89.9051 120.151 89.9051C119.07 89.9051 118.01 89.6011 117.091 89.0273C116.141 88.4055 115.429 87.4775 115.07 86.3951C114.867 85.7429 114.767 85.0625 114.774 84.3789V84.3789ZM117.722 87.1231C118.38 87.7372 119.244 88.0783 120.142 88.0783C121.039 88.0783 121.903 87.7372 122.561 87.1231C122.91 86.7601 123.181 86.3298 123.36 85.8581C123.538 85.3865 123.62 84.8833 123.6 84.3789C123.617 83.8777 123.534 83.3781 123.356 82.9098C123.178 82.4415 122.907 82.0142 122.561 81.6534C121.903 81.0394 121.039 80.6982 120.142 80.6982C119.244 80.6982 118.38 81.0394 117.722 81.6534C117.376 82.0142 117.106 82.4415 116.927 82.9098C116.749 83.3781 116.666 83.8777 116.684 84.3789C116.663 84.8833 116.745 85.3865 116.924 85.8581C117.102 86.3298 117.374 86.7601 117.722 87.1231Z" fill="white"></path><path id="Vector_12" d="M128.031 89.6064V79.1523H129.885L133.501 84.9954L137.209 79.1523H139.064V89.6064H137.209V82.1392L133.501 88.0383L129.793 82.1392V89.6064H128.031Z" fill="white"></path><path id="Vector_13" d="M145.868 89.6064L149.966 79.1523H152.043L156.14 89.6064H154.286L153.341 87.1982H148.687L147.797 89.6064H145.868ZM149.317 85.5554H152.636L150.967 81.2245L149.317 85.5554Z" fill="white"></path><path id="Vector_14" d="M157.197 89.6064L160.683 84.286L157.364 79.1523H159.459L161.777 82.8859L164.095 79.1523H166.227L162.927 84.286L166.338 89.6064H164.28L161.833 85.6861L159.33 89.6064H157.197Z" fill="white"></path><path id="Vector_15" d="M168.582 89.6063V79.1522H175.201V80.8883H170.343V83.6512H174.738V85.294H170.343V88.0568H175.201V89.6996L168.582 89.6063ZM171.289 78.0508L172.42 75.792H174.404L172.55 78.0508H171.289Z" fill="white"></path><path id="Vector_16" d="M170.585 60.6523H6.41546C4.71398 60.6523 3.08218 59.9717 1.87905 58.7604C0.675913 57.5491 0 55.9062 0 54.1931L0 6.45912C0 4.74605 0.675913 3.10316 1.87905 1.89184C3.08218 0.680516 4.71398 0 6.41546 0H170.585C172.286 0 173.918 0.680516 175.121 1.89184C176.324 3.10316 177 4.74605 177 6.45912V54.1931C177 55.9062 176.324 57.5491 175.121 58.7604C173.918 59.9717 172.286 60.6523 170.585 60.6523V60.6523ZM6.41546 2.3335C5.32867 2.3335 4.2864 2.76816 3.51792 3.54186C2.74945 4.31557 2.31772 5.36493 2.31772 6.45912V54.1931C2.31772 55.2873 2.74945 56.3367 3.51792 57.1104C4.2864 57.8841 5.32867 58.3188 6.41546 58.3188H170.585C171.671 58.3188 172.714 57.8841 173.482 57.1104C174.251 56.3367 174.682 55.2873 174.682 54.1931V6.45912C174.682 5.36493 174.251 4.31557 173.482 3.54186C172.714 2.76816 171.671 2.3335 170.585 2.3335H6.41546Z" fill="white"></path><path id="Vector_17" d="M118.019 1.17627H115.701V59.327H118.019V1.17627Z" fill="white"></path><path id="Vector_18" d="M146.48 46.2406L145.887 45.7552C145.349 45.3071 133.093 34.8904 133.093 24.1377H134.947C134.947 32.7436 144.033 41.5736 146.48 43.7951C148.909 41.5736 157.995 32.7436 157.995 24.1377H159.849C159.849 34.8904 147.593 45.3071 147.074 45.7552L146.48 46.2406Z" fill="white"></path><path id="Vector_19" d="M146.48 33.4343C139.063 33.4343 133.093 29.2714 133.093 24.1003C133.093 18.9293 139.101 14.7664 146.48 14.7664C153.86 14.7664 159.849 18.9293 159.849 24.1003C159.849 29.2714 153.749 33.4343 146.48 33.4343ZM146.48 16.6332C140.12 16.6332 134.947 19.9561 134.947 24.1003C134.947 28.2446 140.12 31.5675 146.48 31.5675C152.84 31.5675 157.995 28.226 157.995 24.1003C157.995 19.9747 152.729 16.7265 146.48 16.7265V16.6332Z" fill="white"></path><path id="Vector_20" d="M147.315 32.501H145.46V45.0272H147.315V32.501Z" fill="white"></path><path id="Vector_21" d="M140.906 30.922L139.225 31.7095L145.552 45.4024L147.233 44.615L140.906 30.922Z" fill="white"></path><path id="Vector_22" d="M151.855 30.9224L145.525 44.6143L147.206 45.402L153.536 31.7102L151.855 30.9224Z" fill="white"></path><path id="Vector_23" d="M146.202 26.9379L144.404 29.2528L144.515 26.3219L141.659 26.9379L143.625 24.7538L141.047 23.391L143.94 22.9803L142.827 20.2548L145.294 21.8229L146.202 19.0227L147.092 21.8229L149.558 20.2548L148.464 22.9803L151.357 23.391L148.779 24.7538L150.726 26.9379L147.871 26.3219L147.982 29.2528L146.202 26.9379Z" fill="white"></path><path id="Vector_24" d="M40.792 44.8403L34.8957 35.0396L31.7807 37.9518V44.8216H27.9425V18.4624H31.7807V33.5461L39.698 25.6496H44.593L37.4915 32.4634L44.9082 44.8403H40.792Z" fill="white"></path><path id="Vector_25" d="M65.1189 33.229V44.8405H61.5403V41.7976H61.3549C60.8182 42.9082 59.9613 43.83 58.8962 44.4428C57.8311 45.0556 56.6073 45.3308 55.3845 45.2325C52.1211 45.2325 49.1359 43.6644 49.1359 40.0428C49.1359 36.0852 52.5476 34.4425 56.5526 33.397L61.2066 32.2956V32.109C61.2602 31.5644 61.1899 31.0147 61.001 30.5015C60.8121 29.9884 60.5096 29.5253 60.1164 29.1474C59.7232 28.7696 59.2497 28.4869 58.7318 28.3208C58.2139 28.1546 57.6652 28.1095 57.1274 28.1887C56.5412 28.1453 55.9524 28.2233 55.3973 28.4179C54.8422 28.6125 54.3326 28.9196 53.9 29.3202C53.4674 29.7208 53.1209 30.2064 52.8819 30.747C52.6429 31.2877 52.5165 31.8719 52.5105 32.4637L49.0617 31.8289C49.5994 27.6473 52.7701 25.2578 57.2016 25.2578C61.2066 25.2578 63.6912 26.8259 64.6183 29.6075C65.0142 30.7712 65.1841 32.0007 65.1189 33.229ZM61.5032 34.9092L57.3128 36.0852C54.3276 36.7573 52.974 37.8027 52.974 39.6881C52.974 41.5736 54.1051 42.227 56.0705 42.227C59.2226 42.227 61.3549 39.4455 61.5032 34.9092V34.9092Z" fill="white"></path><path id="Vector_26" d="M90.039 36.0855H74.6678C74.6424 36.8942 74.781 37.6996 75.075 38.4527C75.3691 39.2057 75.8125 39.8904 76.3782 40.4652C76.9438 41.0399 77.6199 41.4926 78.3651 41.7955C79.1103 42.0985 79.909 42.2454 80.7124 42.2272C81.8159 42.2601 82.904 41.9617 83.8385 41.3699C84.7729 40.7782 85.5113 39.9199 85.9598 38.9043L89.4827 39.4457C88.8454 41.2337 87.6545 42.7684 86.0856 43.8237C84.5167 44.879 82.6527 45.3991 80.7681 45.3074C79.4404 45.4023 78.108 45.2082 76.8615 44.7384C75.6149 44.2685 74.4835 43.534 73.5441 42.5846C72.6047 41.6353 71.8794 40.4934 71.4174 39.2367C70.9554 37.9799 70.7676 36.6378 70.8667 35.3014C70.7995 33.9919 71.0027 32.6825 71.4635 31.4561C71.9243 30.2296 72.6327 29.1127 73.544 28.1759C74.4554 27.2391 75.5497 26.5028 76.758 26.0134C77.9663 25.524 79.2623 25.2922 80.5641 25.3327C81.8535 25.2707 83.1413 25.4854 84.3419 25.9627C85.5426 26.4399 86.6288 27.1688 87.5283 28.101C88.4278 29.0331 89.1202 30.1472 89.5594 31.3693C89.9987 32.5914 90.1748 33.8936 90.076 35.1894L90.039 36.0855ZM74.8161 33.1919H86.2008C86.056 31.8258 85.4008 30.5662 84.3679 29.6684C83.335 28.7706 82.0017 28.3018 80.6383 28.3569C79.2529 28.2763 77.8877 28.7198 76.8105 29.6006C75.7333 30.4813 75.022 31.7356 74.8161 33.1173V33.1919Z" fill="white"></path><path id="Vector_27" d="M84.4579 11.5554V11.6861C84.4579 12.7506 84.0379 13.7714 83.2903 14.5241C82.5427 15.2768 81.5287 15.6997 80.4714 15.6997C79.4141 15.6997 78.4001 15.2768 77.6525 14.5241C76.9049 13.7714 76.4849 12.7506 76.4849 11.6861V11.5554H73.4626V11.6861C73.4626 13.5576 74.201 15.3524 75.5154 16.6758C76.8298 17.9991 78.6125 18.7426 80.4714 18.7426C82.3302 18.7426 84.113 17.9991 85.4274 16.6758C86.7418 15.3524 87.4802 13.5576 87.4802 11.6861V11.5554H84.4579Z" fill="white"></path></g></svg>