<svg xmlns="http://www.w3.org/2000/svg" id="Layer_1" data-name="Layer 1" viewBox="0 0 51.43 44.6"><defs><style>.cls-1{fill:#1d1d1b;}</style></defs><path class="cls-1" d="M0,32.06A3.21,3.21,0,0,1,.16,31a2.77,2.77,0,0,1,.43-.82,2.93,2.93,0,0,1,2.3-1.05,3.77,3.77,0,0,1,1.9.5v1.05A3.24,3.24,0,0,0,3,30.08a2,2,0,0,0-1.34.5,2.18,2.18,0,0,0,0,3A2,2,0,0,0,3,34a3.35,3.35,0,0,0,1.84-.6v1.05a3.66,3.66,0,0,1-1.9.49,3,3,0,0,1-1.65-.47,2.57,2.57,0,0,1-1.08-1.4A3.21,3.21,0,0,1,0,32.06Z"></path><path class="cls-1" d="M6.16,34.86v-5.6h1v2.31H9.77V29.26h1v5.6h-1V32.48H7.13v2.38Z"></path><path class="cls-1" d="M12.11,32.06a3.19,3.19,0,0,1,.16-1,2.39,2.39,0,0,1,.44-.82,3,3,0,0,1,4.59,0,3.23,3.23,0,0,1,0,3.72,2.76,2.76,0,0,1-.64.59,3.15,3.15,0,0,1-3.31,0,2.63,2.63,0,0,1-1.08-1.41A3.19,3.19,0,0,1,12.11,32.06Zm1.59,1.47a1.91,1.91,0,0,0,2.6,0,2,2,0,0,0,.57-1.47,2,2,0,0,0-.57-1.46,1.88,1.88,0,0,0-2.6,0,2,2,0,0,0-.56,1.46A2,2,0,0,0,13.7,33.53Z"></path><path class="cls-1" d="M18.94,32.06A3.21,3.21,0,0,1,19.1,31a2.56,2.56,0,0,1,.43-.82,2.93,2.93,0,0,1,2.3-1.05,3.77,3.77,0,0,1,1.9.5v1.05a3.24,3.24,0,0,0-1.84-.61,2,2,0,0,0-1.34.5,2.18,2.18,0,0,0,0,3,2,2,0,0,0,1.34.5,3.37,3.37,0,0,0,1.84-.6v1.05a3.69,3.69,0,0,1-1.9.49,3,3,0,0,1-1.65-.47,2.53,2.53,0,0,1-1.08-1.4A3.21,3.21,0,0,1,18.94,32.06Z"></path><path class="cls-1" d="M24.78,32.06a3.19,3.19,0,0,1,.16-1,2.56,2.56,0,0,1,.43-.82,3,3,0,0,1,4.6,0,3.23,3.23,0,0,1,0,3.72,2.8,2.8,0,0,1-.65.59,3.13,3.13,0,0,1-3.3,0,2.63,2.63,0,0,1-1.08-1.41A3.19,3.19,0,0,1,24.78,32.06Zm1.59,1.47a1.91,1.91,0,0,0,2.6,0,2,2,0,0,0,.56-1.47A2,2,0,0,0,29,30.6a1.88,1.88,0,0,0-2.6,0,2,2,0,0,0-.56,1.46A2,2,0,0,0,26.37,33.53Z"></path><path class="cls-1" d="M31.93,34.86v-5.6h1v4.66h2.62v.94Z"></path><path class="cls-1" d="M36.34,34.86l2.22-5.6h1.11l2.21,5.6h-1l-.5-1.29H37.87l-.49,1.29Zm1.86-2.17H40l-.9-2.32Z"></path><path class="cls-1" d="M41.92,30.16v-.9h4.62v.9H44.72v4.7h-1v-4.7Z"></path><path class="cls-1" d="M47.86,34.86v-5.6h3.57v.88H48.81v1.48h2.38v.87H48.81V34h2.62v.88Z"></path><path class="cls-1" d="M6.5,41.67a3.44,3.44,0,0,1,.16-1,2.47,2.47,0,0,1,.44-.82,2.84,2.84,0,0,1,2.3-1.05,3.82,3.82,0,0,1,1.9.49v1a3.32,3.32,0,0,0-1.84-.6,2,2,0,0,0-1.35.49,2.21,2.21,0,0,0,0,3,2,2,0,0,0,1.35.5,3.37,3.37,0,0,0,1.84-.6V44.1a3.72,3.72,0,0,1-1.9.5,2.93,2.93,0,0,1-1.66-.48,2.62,2.62,0,0,1-1.08-1.4A3.5,3.5,0,0,1,6.5,41.67Z"></path><path class="cls-1" d="M12.34,41.67a3.49,3.49,0,0,1,.16-1,2.57,2.57,0,0,1,.44-.82,2.9,2.9,0,0,1,2.3-1.05,2.86,2.86,0,0,1,2.29,1.05,3.18,3.18,0,0,1,0,3.72,2.76,2.76,0,0,1-.64.59,3.08,3.08,0,0,1-3.3,0,2.65,2.65,0,0,1-1.09-1.41A3.49,3.49,0,0,1,12.34,41.67Zm1.59,1.47a1.92,1.92,0,0,0,2.61,0,2.2,2.2,0,0,0,0-2.93,1.92,1.92,0,0,0-2.61,0,2.2,2.2,0,0,0,0,2.93Z"></path><path class="cls-1" d="M19.49,44.47v-5.6h1L22.45,42l2-3.13h1v5.6h-.94v-4l-2,3.15H22.4l-2-3.15v4Z"></path><path class="cls-1" d="M29.11,44.47l2.21-5.6h1.11l2.21,5.6h-1l-.5-1.28H30.63l-.49,1.28ZM31,42.31h1.79L31.85,40Z"></path><path class="cls-1" d="M35.22,44.47l1.88-2.84-1.79-2.76h1.17l1.24,2,1.26-2h1.15l-1.79,2.76,1.85,2.84H39l-1.32-2.09-1.35,2.09Z"></path><path class="cls-1" d="M41.35,44.47v-5.6h3.58v.89H42.31v1.47h2.37v.88H42.31v1.48h2.62v.88Zm1.47-6.19.61-1.2H44.5l-1,1.2Z"></path><path class="cls-1" d="M15.85,17.84l-3.19-5.26L11,14.15v3.69H9V3.71H11v8.08L15.3,7.56h2.64L14.11,11.2l4,6.64Z"></path><path class="cls-1" d="M29,11.62v6.22H27.09V16.2H27A3.28,3.28,0,0,1,23.76,18c-1.76,0-3.37-.83-3.37-2.78,0-2.11,1.84-3,4-3.56l2.51-.58V11a1.92,1.92,0,0,0-2.2-2.09,2.31,2.31,0,0,0-2.49,2.28l-1.86-.33c.29-2.24,2-3.52,4.39-3.52,2.16,0,3.5.84,4,2.32A5.16,5.16,0,0,1,29,11.62Zm-1.94.9-2.26.63c-1.62.35-2.35.92-2.35,1.92s.61,1.36,1.68,1.36C25.83,16.43,27,15,27.07,12.52Z"></path><path class="cls-1" d="M42.45,13.1H34.16a3.2,3.2,0,0,0,3.27,3.29,2.94,2.94,0,0,0,2.82-1.78l1.91.29A4.75,4.75,0,0,1,37.45,18a5,5,0,0,1-5.34-5.35,5.07,5.07,0,0,1,5.23-5.34,4.9,4.9,0,0,1,5.13,5.27Zm-8.2-1.54h6.13a2.9,2.9,0,0,0-3-2.6A3,3,0,0,0,34.25,11.56Z"></path><path class="cls-1" d="M39.44,0V.08a2.15,2.15,0,1,1-4.3,0V0H33.51V.08a3.79,3.79,0,0,0,3.78,3.78A3.78,3.78,0,0,0,41.07.08V0Z"></path></svg>