<svg xmlns="http://www.w3.org/2000/svg" width="335" height="25" viewBox="0 0 335 25" fill="none"><path d="M48.665 12.3984C48.665 13.3359 48.829 14.1797 49.1494 14.9375C49.79 16.4453 50.8994 17.3672 52.2509 17.8672C52.9306 18.1172 53.6337 18.2422 54.3759 18.2422C55.1181 18.2422 55.7744 18.1562 56.3525 17.9843C56.9306 17.8125 57.54 17.5547 58.1728 17.2187V15.6172C56.915 16.414 55.6494 16.8125 54.3759 16.8125C53.5322 16.8125 52.7431 16.6015 52.0322 16.125C50.9775 15.4609 50.2431 14.2031 50.2353 12.3984C50.2353 11.2187 50.5712 10.2109 51.1025 9.53122C51.9072 8.49216 53.1259 7.98434 54.3759 7.98434C55.6415 7.98434 56.9072 8.38278 58.1728 9.18747V7.58591C57.54 7.24997 56.9306 6.99216 56.3525 6.82028C55.7744 6.64841 55.1181 6.56247 54.3759 6.56247C53.1962 6.56247 52.079 6.85934 51.1103 7.49997C49.665 8.41403 48.665 10.0859 48.665 12.3984Z" fill="black"></path><path d="M61.7509 18V12.9922H67.54V18H69.0478V6.79684H67.54V11.6015H61.7509V6.79684H60.2431V18H61.7509Z" fill="black"></path><path d="M71.6884 14.8984C72.3212 16.4062 73.4306 17.3359 74.7822 17.8515C76.1337 18.375 77.6806 18.375 79.0322 17.8515C80.3837 17.3359 81.4931 16.4062 82.1259 14.8984C82.4462 14.1484 82.6025 13.3125 82.6025 12.3984C82.6025 11.4843 82.4462 10.6484 82.1259 9.89059C81.4931 8.39059 80.3837 7.46091 79.0322 6.94528C77.6806 6.42966 76.1337 6.42966 74.7822 6.94528C73.4306 7.46091 72.3212 8.39059 71.6884 9.89059C71.3681 10.6484 71.2119 11.4843 71.2119 12.3984C71.2119 13.3125 71.3681 14.1484 71.6884 14.8984ZM73.1337 10.5C73.5947 9.36716 74.3915 8.67184 75.3681 8.28903C76.3447 7.90622 77.4697 7.90622 78.4462 8.28903C79.4228 8.67184 80.2275 9.36716 80.6962 10.5C80.9228 11.0703 81.04 11.7031 81.04 12.3984C81.04 13.0937 80.9228 13.7265 80.6962 14.2968C80.2275 15.4375 79.4228 16.1328 78.4462 16.5078C77.4697 16.8906 76.3447 16.8906 75.3759 16.5078C74.3994 16.1328 73.5947 15.4375 73.1337 14.2968C72.8994 13.7265 72.7822 13.0937 72.7822 12.3984C72.7822 11.7031 72.8994 11.0703 73.1337 10.5Z" fill="black"></path><path d="M84.04 12.3984C84.04 13.3359 84.204 14.1797 84.5244 14.9375C85.165 16.4453 86.2744 17.3672 87.6259 17.8672C88.3056 18.1172 89.0087 18.2422 89.7509 18.2422C90.4931 18.2422 91.1494 18.1562 91.7275 17.9843C92.3056 17.8125 92.915 17.5547 93.5478 17.2187V15.6172C92.29 16.414 91.0244 16.8125 89.7509 16.8125C88.9072 16.8125 88.1181 16.6015 87.4072 16.125C86.3525 15.4609 85.6181 14.2031 85.6103 12.3984C85.6103 11.2187 85.9462 10.2109 86.4775 9.53122C87.2822 8.49216 88.5009 7.98434 89.7509 7.98434C91.0165 7.98434 92.2822 8.38278 93.5478 9.18747V7.58591C92.915 7.24997 92.3056 6.99216 91.7275 6.82028C91.1494 6.64841 90.4931 6.56247 89.7509 6.56247C88.5712 6.56247 87.454 6.85934 86.4853 7.49997C85.04 8.41403 84.04 10.0859 84.04 12.3984Z" fill="black"></path><path d="M95.3759 14.8984C96.0087 16.4062 97.1181 17.3359 98.4697 17.8515C99.8212 18.375 101.368 18.375 102.72 17.8515C104.071 17.3359 105.181 16.4062 105.813 14.8984C106.134 14.1484 106.29 13.3125 106.29 12.3984C106.29 11.4843 106.134 10.6484 105.813 9.89059C105.181 8.39059 104.071 7.46091 102.72 6.94528C101.368 6.42966 99.8212 6.42966 98.4697 6.94528C97.1181 7.46091 96.0087 8.39059 95.3759 9.89059C95.0556 10.6484 94.8994 11.4843 94.8994 12.3984C94.8994 13.3125 95.0556 14.1484 95.3759 14.8984ZM96.8212 10.5C97.2822 9.36716 98.079 8.67184 99.0556 8.28903C100.032 7.90622 101.157 7.90622 102.134 8.28903C103.11 8.67184 103.915 9.36716 104.384 10.5C104.61 11.0703 104.727 11.7031 104.727 12.3984C104.727 13.0937 104.61 13.7265 104.384 14.2968C103.915 15.4375 103.11 16.1328 102.134 16.5078C101.157 16.8906 100.032 16.8906 99.0634 16.5078C98.0869 16.1328 97.2822 15.4375 96.8212 14.2968C96.5869 13.7265 96.4697 13.0937 96.4697 12.3984C96.4697 11.7031 96.5869 11.0703 96.8212 10.5Z" fill="black"></path><path d="M115.313 18V16.5625H109.954V6.79684H108.446V18H115.313Z" fill="black"></path><path d="M117.907 18L119.032 15.1328H124.071L125.204 18H126.852L122.36 6.79684H120.774L116.274 18H117.907ZM121.524 8.73434L123.509 13.7422H119.571L121.524 8.73434Z" fill="black"></path><path d="M129.923 8.19528V18H131.431V8.19528H135.142V6.79684H126.212V8.19528H129.923Z" fill="black"></path><path d="M144.048 18V16.6093H138.72V13.0703H143.548V11.6797H138.72V8.19528H144.048V6.79684H137.212V18H144.048Z" fill="black"></path><path d="M150.415 12.3984C150.415 13.3359 150.579 14.1797 150.899 14.9375C151.54 16.4453 152.649 17.3672 154.001 17.8672C154.681 18.1172 155.384 18.2422 156.126 18.2422C156.868 18.2422 157.524 18.1562 158.102 17.9843C158.681 17.8125 159.29 17.5547 159.923 17.2187V15.6172C158.665 16.414 157.399 16.8125 156.126 16.8125C155.282 16.8125 154.493 16.6015 153.782 16.125C152.727 15.4609 151.993 14.2031 151.985 12.3984C151.985 11.2187 152.321 10.2109 152.852 9.53122C153.657 8.49216 154.876 7.98434 156.126 7.98434C157.392 7.98434 158.657 8.38278 159.923 9.18747V7.58591C159.29 7.24997 158.681 6.99216 158.102 6.82028C157.524 6.64841 156.868 6.56247 156.126 6.56247C154.946 6.56247 153.829 6.85934 152.86 7.49997C151.415 8.41403 150.415 10.0859 150.415 12.3984Z" fill="black"></path><path d="M161.751 14.8984C162.384 16.4062 163.493 17.3359 164.845 17.8515C166.196 18.375 167.743 18.375 169.095 17.8515C170.446 17.3359 171.556 16.4062 172.188 14.8984C172.509 14.1484 172.665 13.3125 172.665 12.3984C172.665 11.4843 172.509 10.6484 172.188 9.89059C171.556 8.39059 170.446 7.46091 169.095 6.94528C167.743 6.42966 166.196 6.42966 164.845 6.94528C163.493 7.46091 162.384 8.39059 161.751 9.89059C161.431 10.6484 161.274 11.4843 161.274 12.3984C161.274 13.3125 161.431 14.1484 161.751 14.8984ZM163.196 10.5C163.657 9.36716 164.454 8.67184 165.431 8.28903C166.407 7.90622 167.532 7.90622 168.509 8.28903C169.485 8.67184 170.29 9.36716 170.759 10.5C170.985 11.0703 171.102 11.7031 171.102 12.3984C171.102 13.0937 170.985 13.7265 170.759 14.2968C170.29 15.4375 169.485 16.1328 168.509 16.5078C167.532 16.8906 166.407 16.8906 165.438 16.5078C164.462 16.1328 163.657 15.4375 163.196 14.2968C162.962 13.7265 162.845 13.0937 162.845 12.3984C162.845 11.7031 162.962 11.0703 163.196 10.5Z" fill="black"></path><path d="M176.298 18V9.42184L180.485 16.2422H180.649L184.868 9.42184V18H186.345V6.79684H184.837L180.587 13.6953L176.36 6.79684H174.821V18H176.298Z" fill="black"></path><path d="M194.267 18L195.392 15.1328H200.431L201.563 18H203.212L198.72 6.79684H197.134L192.634 18H194.267ZM197.884 8.73434L199.868 13.7422H195.931L197.884 8.73434Z" fill="black"></path><path d="M205.431 18L208.376 13.5234L211.259 18H213.11L209.337 12.3203L213.001 6.79684H211.157L208.392 11.1484L205.673 6.79684H203.798L207.446 12.3203L203.61 18H205.431Z" fill="black"></path><path d="M221.626 18V16.6093H216.298V13.0703H221.126V11.6797H216.298V8.19528H221.626V6.79684H214.79V18H221.626ZM218.821 5.69528L220.837 3.28122H218.954L217.563 5.69528H218.821Z" fill="black"></path><path d="M235.548 18V16.6093H230.22V13.0703H235.048V11.6797H230.22V8.19528H235.548V6.79684H228.712V18H235.548Z" fill="black"></path><path d="M246.54 18C247.571 18 248.407 17.7109 249.048 17.1328C249.688 16.5547 250.009 15.8125 250.009 14.914C250.009 14.2578 249.829 13.6797 249.477 13.1718C249.118 12.664 248.626 12.3359 247.993 12.1797C249.017 11.8047 249.657 10.914 249.657 9.75778C249.657 8.84372 249.36 8.11716 248.767 7.58591C248.165 7.06247 247.337 6.79684 246.267 6.79684H242.634V18H246.54ZM244.142 12.9609H246.384C247.72 12.9609 248.446 13.6875 248.446 14.8125C248.446 15.3593 248.251 15.8047 247.868 16.1406C247.485 16.4843 246.985 16.6562 246.384 16.6562H244.142V12.9609ZM244.142 8.14059H246.095C246.712 8.14059 247.196 8.28903 247.563 8.58591C247.931 8.89059 248.11 9.28122 248.11 9.77341C248.11 10.3281 247.931 10.7734 247.571 11.1093C247.212 11.4453 246.72 11.6172 246.095 11.6172H244.142V8.14059Z" fill="black"></path><path d="M251.923 14.8984C252.556 16.4062 253.665 17.3359 255.017 17.8515C256.368 18.375 257.915 18.375 259.267 17.8515C260.618 17.3359 261.727 16.4062 262.36 14.8984C262.681 14.1484 262.837 13.3125 262.837 12.3984C262.837 11.4843 262.681 10.6484 262.36 9.89059C261.727 8.39059 260.618 7.46091 259.267 6.94528C257.915 6.42966 256.368 6.42966 255.017 6.94528C253.665 7.46091 252.556 8.39059 251.923 9.89059C251.602 10.6484 251.446 11.4843 251.446 12.3984C251.446 13.3125 251.602 14.1484 251.923 14.8984ZM253.368 10.5C253.829 9.36716 254.626 8.67184 255.602 8.28903C256.579 7.90622 257.704 7.90622 258.681 8.28903C259.657 8.67184 260.462 9.36716 260.931 10.5C261.157 11.0703 261.274 11.7031 261.274 12.3984C261.274 13.0937 261.157 13.7265 260.931 14.2968C260.462 15.4375 259.657 16.1328 258.681 16.5078C257.704 16.8906 256.579 16.8906 255.61 16.5078C254.634 16.1328 253.829 15.4375 253.368 14.2968C253.134 13.7265 253.017 13.0937 253.017 12.3984C253.017 11.7031 253.134 11.0703 253.368 10.5Z" fill="black"></path><path d="M266.501 18V13.6797H268.704L271.079 18H272.774L270.243 13.5234C270.97 13.3125 271.548 12.9218 271.977 12.3437C272.399 11.7656 272.61 11.0703 272.61 10.2578C272.61 9.29684 272.274 8.48434 271.602 7.80466C270.931 7.13278 270.071 6.79684 269.024 6.79684H264.993V18H266.501ZM266.501 8.19528H268.899C269.532 8.19528 270.048 8.39059 270.446 8.77341C270.845 9.15622 271.04 9.65622 271.04 10.2578C271.04 11.4765 270.282 12.289 268.899 12.289H266.501V8.19528Z" fill="black"></path><path d="M274.61 14.8984C275.243 16.4062 276.352 17.3359 277.704 17.8515C279.056 18.375 280.602 18.375 281.954 17.8515C283.306 17.3359 284.415 16.4062 285.048 14.8984C285.368 14.1484 285.524 13.3125 285.524 12.3984C285.524 11.4843 285.368 10.6484 285.048 9.89059C284.415 8.39059 283.306 7.46091 281.954 6.94528C280.602 6.42966 279.056 6.42966 277.704 6.94528C276.352 7.46091 275.243 8.39059 274.61 9.89059C274.29 10.6484 274.134 11.4843 274.134 12.3984C274.134 13.3125 274.29 14.1484 274.61 14.8984ZM276.056 10.5C276.517 9.36716 277.313 8.67184 278.29 8.28903C279.267 7.90622 280.392 7.90622 281.368 8.28903C282.345 8.67184 283.149 9.36716 283.618 10.5C283.845 11.0703 283.962 11.7031 283.962 12.3984C283.962 13.0937 283.845 13.7265 283.618 14.2968C283.149 15.4375 282.345 16.1328 281.368 16.5078C280.392 16.8906 279.267 16.8906 278.298 16.5078C277.321 16.1328 276.517 15.4375 276.056 14.2968C275.821 13.7265 275.704 13.0937 275.704 12.3984C275.704 11.7031 275.821 11.0703 276.056 10.5Z" fill="black"></path><path d="M286.962 12.3984C286.962 13.3359 287.126 14.1797 287.446 14.9375C288.087 16.4453 289.196 17.3672 290.548 17.8672C291.227 18.1172 291.931 18.2422 292.673 18.2422C293.415 18.2422 294.071 18.1562 294.649 17.9843C295.227 17.8125 295.837 17.5547 296.47 17.2187V12.4453H291.126V13.8437H294.993V16.3203C294.251 16.6406 293.477 16.7968 292.673 16.7968C291.829 16.7968 291.04 16.5859 290.329 16.1172C289.274 15.4609 288.54 14.2031 288.532 12.3984C288.532 11.2187 288.868 10.2109 289.399 9.53122C290.204 8.49216 291.423 7.98434 292.673 7.98434C293.938 7.98434 295.204 8.38278 296.47 9.18747V7.58591C295.837 7.24997 295.227 6.99216 294.649 6.82028C294.071 6.64841 293.415 6.56247 292.673 6.56247C291.493 6.56247 290.376 6.85934 289.407 7.49997C287.962 8.41403 286.962 10.0859 286.962 12.3984Z" fill="black"></path><path d="M299.095 14.8984C299.727 16.4062 300.837 17.3359 302.188 17.8515C303.54 18.375 305.087 18.375 306.438 17.8515C307.79 17.3359 308.899 16.4062 309.532 14.8984C309.852 14.1484 310.009 13.3125 310.009 12.3984C310.009 11.4843 309.852 10.6484 309.532 9.89059C308.899 8.39059 307.79 7.46091 306.438 6.94528C305.087 6.42966 303.54 6.42966 302.188 6.94528C300.837 7.46091 299.727 8.39059 299.095 9.89059C298.774 10.6484 298.618 11.4843 298.618 12.3984C298.618 13.3125 298.774 14.1484 299.095 14.8984ZM300.54 10.5C301.001 9.36716 301.798 8.67184 302.774 8.28903C303.751 7.90622 304.876 7.90622 305.852 8.28903C306.829 8.67184 307.634 9.36716 308.102 10.5C308.329 11.0703 308.446 11.7031 308.446 12.3984C308.446 13.0937 308.329 13.7265 308.102 14.2968C307.634 15.4375 306.829 16.1328 305.852 16.5078C304.876 16.8906 303.751 16.8906 302.782 16.5078C301.806 16.1328 301.001 15.4375 300.54 14.2968C300.306 13.7265 300.188 13.0937 300.188 12.3984C300.188 11.7031 300.306 11.0703 300.54 10.5Z" fill="black"></path><path d="M316.04 18C317.501 18 318.813 17.5156 319.806 16.6093C320.798 15.7109 321.415 14.2343 321.415 12.4297C321.415 10.6172 320.813 9.12497 319.829 8.21091C318.845 7.29684 317.532 6.79684 316.071 6.79684H312.165V18H316.04ZM313.673 8.19528H316.024C317.087 8.19528 318.017 8.54684 318.72 9.22653C319.423 9.91403 319.845 11.0312 319.845 12.4297C319.845 13.8125 319.415 14.9297 318.704 15.5937C317.985 16.2578 317.056 16.6093 315.993 16.6093H313.673V8.19528Z" fill="black"></path><path d="M323.329 14.8984C323.962 16.4062 325.071 17.3359 326.423 17.8515C327.774 18.375 329.321 18.375 330.673 17.8515C332.024 17.3359 333.134 16.4062 333.767 14.8984C334.087 14.1484 334.243 13.3125 334.243 12.3984C334.243 11.4843 334.087 10.6484 333.767 9.89059C333.134 8.39059 332.024 7.46091 330.673 6.94528C329.321 6.42966 327.774 6.42966 326.423 6.94528C325.071 7.46091 323.962 8.39059 323.329 9.89059C323.009 10.6484 322.852 11.4843 322.852 12.3984C322.852 13.3125 323.009 14.1484 323.329 14.8984ZM324.774 10.5C325.235 9.36716 326.032 8.67184 327.009 8.28903C327.985 7.90622 329.11 7.90622 330.087 8.28903C331.063 8.67184 331.868 9.36716 332.337 10.5C332.563 11.0703 332.681 11.7031 332.681 12.3984C332.681 13.0937 332.563 13.7265 332.337 14.2968C331.868 15.4375 331.063 16.1328 330.087 16.5078C329.11 16.8906 327.985 16.8906 327.017 16.5078C326.04 16.1328 325.235 15.4375 324.774 14.2968C324.54 13.7265 324.423 13.0937 324.423 12.3984C324.423 11.7031 324.54 11.0703 324.774 10.5ZM328.868 5.69528L330.884 3.28122H329.001L327.602 5.69528H328.868Z" fill="black"></path><path d="M10.0069 24.1583L9.56341 23.7979C9.16147 23.4653 0 15.7314 0 7.74804H1.386C1.386 14.1375 8.17741 20.6933 10.0069 22.3426C11.8226 20.6933 18.614 14.1375 18.614 7.74804H20C20 15.7314 10.8385 23.4653 10.4505 23.7979L10.0069 24.1583Z" fill="#1D1D1B"></path><path d="M10.0069 14.6503C4.46293 14.6503 0 11.5595 0 7.72029C0 3.88107 4.49065 0.790283 10.0069 0.790283C15.5232 0.790283 20 3.88107 20 7.72029C20 11.5595 15.4401 14.6503 10.0069 14.6503ZM10.0069 2.17628C5.25295 2.17628 1.386 4.64337 1.386 7.72029C1.386 10.7972 5.25295 13.2643 10.0069 13.2643C14.7609 13.2643 18.614 10.7834 18.614 7.72029C18.614 4.65723 14.6778 2.24558 10.0069 2.24558V2.17628Z" fill="#1D1D1B"></path><path d="M10.6306 13.9573H9.24456V23.2574H10.6306V13.9573Z" fill="#1D1D1B"></path><path d="M5.84031 12.7851L4.58365 13.3697L9.31349 23.536L10.5701 22.9514L5.84031 12.7851Z" fill="#1D1D1B"></path><path d="M14.0248 12.7852L9.29321 22.9507L10.5498 23.5356L15.2814 13.3701L14.0248 12.7852Z" fill="#1D1D1B"></path><path d="M9.79904 9.82688L8.45462 11.5455L8.53778 9.3695L6.40334 9.82688L7.8725 8.20526L5.94596 7.19348L8.10812 6.88856L7.27652 4.865L9.1199 6.02924L9.79904 3.95024L10.4643 6.02924L12.3077 4.865L11.49 6.88856L13.6521 7.19348L11.7256 8.20526L13.1809 9.82688L11.0464 9.3695L11.1296 11.5455L9.79904 9.82688Z" fill="#1D1D1B"></path></svg>