<svg xmlns="http://www.w3.org/2000/svg" width="64" height="64" viewBox="0 0 64 64" fill="none"><circle cx="32" cy="32" r="32" fill="#8B8B8B" fill-opacity="0.2"></circle><circle cx="32" cy="32" r="24" fill="black"></circle><path fill-rule="evenodd" clip-rule="evenodd" d="M40.5373 23.5107C39.4285 22.3945 38.1092 21.5095 36.6558 20.9069C35.2025 20.3042 33.644 19.996 32.0707 20C25.4733 20 20.1027 25.3693 20.1 31.9693C20.1 34.0787 20.6507 36.1373 21.6973 37.9533L20 44.1547L26.3453 42.4893C28.1005 43.4448 30.0669 43.9458 32.0653 43.9467H32.0707C38.6667 43.9467 44.0373 38.5773 44.04 31.9773C44.0445 30.4046 43.7373 28.8467 43.1361 27.3934C42.5349 25.9402 41.6516 24.6205 40.5373 23.5107V23.5107ZM32.0707 41.9267H32.0667C30.2847 41.9269 28.5355 41.4474 27.0027 40.5387L26.64 40.3227L22.8747 41.3107L23.8787 37.64L23.6427 37.264C22.6464 35.6779 22.119 33.8424 22.1213 31.9693C22.124 26.484 26.5867 22.0213 32.0747 22.0213C33.3817 22.0184 34.6763 22.2748 35.8835 22.7755C37.0908 23.2763 38.1868 24.0115 39.108 24.9387C40.0342 25.8614 40.7683 26.9585 41.2678 28.1667C41.7674 29.3748 42.0226 30.67 42.0187 31.9773C42.016 37.4627 37.5533 41.9267 32.0707 41.9267ZM37.528 34.4747C37.228 34.324 35.7587 33.6013 35.484 33.5013C35.2107 33.4013 35.012 33.352 34.812 33.6507C34.612 33.9493 34.0387 34.6227 33.864 34.8227C33.6893 35.0227 33.5147 35.0467 33.216 34.8973C32.9173 34.748 31.9533 34.432 30.8107 33.4133C29.9213 32.62 29.3213 31.6413 29.1467 31.3413C28.972 31.0413 29.128 30.88 29.2787 30.7307C29.4133 30.5973 29.5773 30.3813 29.7267 30.2067C29.876 30.032 29.9253 29.908 30.0253 29.708C30.1253 29.508 30.076 29.3333 30 29.184C29.9253 29.0333 29.3267 27.5613 29.0773 26.9627C28.836 26.3827 28.5893 26.46 28.4053 26.452C28.2148 26.4442 28.0241 26.4406 27.8333 26.4413C27.6817 26.4452 27.5324 26.4804 27.395 26.5446C27.2576 26.6088 27.1349 26.7008 27.0347 26.8147C26.76 27.1147 25.988 27.8373 25.988 29.3093C25.988 30.7813 27.06 32.204 27.2093 32.404C27.3587 32.604 29.3187 35.624 32.3187 36.92C33.0333 37.228 33.5907 37.412 34.024 37.5507C34.74 37.7787 35.392 37.7453 35.908 37.6693C36.4827 37.584 37.6773 36.9467 37.9267 36.248C38.176 35.5493 38.176 34.9507 38.1013 34.8253C38.0267 34.7 37.8253 34.624 37.528 34.4747" fill="#D9D9D9"></path></svg>